<svg xmlns="http://www.w3.org/2000/svg" xmlns:xlink="http://www.w3.org/1999/xlink" fill="none" version="1.1" width="235.48924255371094" height="180" viewBox="0 0 235.48924255371094 180"><defs><clipPath id="master_svg0_1506_9566"><rect x="0" y="0" width="235.48924255371094" height="180" rx="0"/></clipPath></defs><g clip-path="url(#master_svg0_1506_9566)"><g><g><g><path d="M103.0653876953125,34.4751525L2.8924876953125,87.6241125L2.8923276953125,87.6242125Q1.4022876953125,88.4155125,0.5795846953125,90.0027125Q-0.1776123046875,91.46361250000001,-0.1776123046875,93.19761249999999Q-0.1776123046875,94.9316125,0.5795846953125,96.3925125Q1.4022776953125,97.9798125,2.8924676953125,98.7711125L43.8372876953125,120.4974125L72.1267876953125,135.5123125L103.8893876953125,152.3573125L106.2223876953125,153.6043125L107.3473876953125,154.1903125Q112.2023876953125,156.7553125,117.5413876953125,156.8263125Q123.1083876953125,156.8973125,128.1683876953125,154.1893125L129.9993876953125,153.21631250000002L163.3883876953125,135.5123125L169.1133876953125,132.4823125L191.6773876953125,120.4975125L209.2393876953125,111.1815125L232.6043876953125,98.7706125Q233.7623876953125,98.1528125,234.5323876953125,97.0312125Q235.2243876953125,96.0227125,235.5013876953125,94.7623125Q235.5323876953125,94.6838125,235.5413876953125,94.5953125Q235.6793876953125,93.95271249999999,235.6793876953125,93.1912125Q235.6793876953125,91.4422125,234.9223876953125,89.9859125Q234.1023876953125,88.41051250000001,232.6113876953125,87.6184125L228.6773876953125,85.5159125L169.1133876953125,53.9322125L128.1623876953125,32.2058725Q123.1973876953125,29.5703125,117.7513876953125,29.5703125Q112.3043876953125,29.5703125,107.3403876953125,32.2058825L103.0653876953125,34.4751525ZM3.3611676953125,88.50751249999999L3.3613376953125,88.5074125L103.5343876953125,35.3585225L107.8093876953125,33.0891125Q112.5533876953125,30.5703105,117.7513876953125,30.5703125Q122.9483876953125,30.5703125,127.6933876953125,33.0891225L168.6443876953125,54.8155125L228.2083876953125,86.3994125L232.1393876953125,88.5003125Q233.3593876953125,89.14791249999999,234.0353876953125,90.4474125Q234.6793876953125,91.6868125,234.6793876953125,93.1912125Q234.6793876953125,93.8656125,234.5563876953125,94.4165125Q234.5553876953125,94.4232125,234.5533876953125,94.4299125Q234.5423876953125,94.4613125,234.5353876953125,94.4938125Q234.0353876953125,96.8738125,232.1333876953125,97.8883125L208.7703876953125,110.2983125L191.2093876953125,119.6141125L168.6443876953125,131.5993125L162.9203876953125,134.6293125L129.5303876953125,152.3323125L127.6993876953125,153.3063125Q122.8633876953125,155.8943125,117.5543876953125,155.8263125Q112.4573876953125,155.7593125,107.8143876953125,153.3053125L106.6833876953125,152.7173125L104.3613876953125,151.4763125L72.5952876953125,134.6293125L44.3060876953125,119.6141125L3.3611876953125,97.8878125Q2.1466276953125,97.2428125,1.4674076953125,95.9323125Q0.8223876953125,94.6879125,0.8223876953125,93.19761249999999Q0.8223876953125,91.7073125,1.4674076953125,90.4629125Q2.1465976953125,89.1525125,3.3611676953125,88.50751249999999Z" fill-rule="evenodd" fill="#C6D6F7" fill-opacity="1"/></g><g><g transform="matrix(0.2774823307991028,-0.9607307314872742,0.9607307314872742,0.2774823307991028,-24.944167032461337,218.7590038326407)"><ellipse cx="183.1981964111328" cy="151.8289451599121" rx="50.22850799560547" ry="25.86532974243164" fill="#3D57DA" fill-opacity="1"/><ellipse cx="183.1981964111328" cy="151.8289451599121" rx="50.22850799560547" ry="25.86532974243164" fill-opacity="0" stroke-opacity="1" stroke="#C6D6F7" fill="none" stroke-width="1"/></g><g><g transform="matrix(0.2774823307991028,-0.9607307314872742,0.9607307314872742,0.2774823307991028,-12.794713083538227,221.39757534823093)"><ellipse cx="181.72416305541992" cy="139.79058837890625" rx="40.92549514770508" ry="20.585243225097656" fill-opacity="0" stroke-opacity="1" stroke="#C6D6F7" fill="none" stroke-width="1"/></g><g><path d="M140.93123489990234,108.9153176538086C138.19123489990233,106.2720438538086,134.67763489990233,105.29855165380859,132.80153489990235,107.2197476538086Q132.59523489990235,107.4260576538086,71.83234489990234,167.7569576538086C71.74208489990234,167.83435765380858,71.65182489990234,167.9052576538086,71.56801489990234,167.9890576538086C71.52933489990234,168.02775765380858,71.49709489990235,168.0793576538086,71.45841589990235,168.12445765380858L71.43907589990235,168.1437576538086C69.63391589990235,170.2455576538086,70.48491886990234,174.1265576538086,73.41185489990234,176.9503576538086C76.33233489990235,179.7677576538086,80.23922489990234,180.47045765380858,82.27003489990234,178.6008576538086L82.30223489990234,178.63305765380858L142.82013489990234,116.8515576538086C144.34813489990233,114.91098765380859,143.55513489990233,111.44250765380859,140.92473489990235,108.91528765380859L140.93123489990234,108.9153176538086Z" fill="#3D57DA" fill-opacity="1"/><path d="M142.08353489990236,109.4205976538086L142.17553489990235,109.42101765380859L141.27833489990235,108.55546765380859Q139.06623489990233,106.42143965380859,136.65413489990235,105.86849765380859Q134.01333489990236,105.26313565380859,132.44383489990236,106.8704246538086L71.49349289990235,167.3888576538086Q71.47337189990235,167.4059576538086,71.44060089990235,167.4333576538086Q71.29193989990235,167.5580576538086,71.21450289990234,167.6354576538086Q71.16702389990235,167.6829576538086,71.10460389990234,167.76575765380858Q71.09377389990235,167.7801576538086,71.08717589990235,167.7885576538086L71.07210589990234,167.80365765380859L71.05977589990235,167.81805765380858Q69.54021089990235,169.5872576538086,70.16287089990234,172.3849576538086Q70.76533589990234,175.0919576538086,73.06469489990235,177.3102576538086Q75.35783489990234,179.5223576538086,78.08392489990234,180.0249576538086Q80.60293489990235,180.4893576538086,82.23793489990234,179.2758576538086L82.30593489990234,179.34385765380858L143.19623489990235,117.1820576538086L143.21303489990234,117.16085765380859Q144.51283489990234,115.5099876538086,143.91843489990234,112.9886876538086Q143.46473489990234,111.0638476538086,142.08353489990236,109.4205976538086ZM140.31043489990236,109.0184476538086Q138.42663489990235,107.30076765380859,136.43073489990235,106.8432156538086Q134.33683489990233,106.3632206538086,133.15923489990234,107.56907765380859L72.17164489990235,168.12465765380858L72.15774489990234,168.13665765380858Q72.13200489990234,168.1586576538086,72.08314489990235,168.1996576538086Q71.96799489990235,168.2962576538086,71.92152489990234,168.3426576538086L71.92427489990234,168.3401576538086Q71.91887489990235,168.3468576538086,71.90305489990234,168.3677576538086Q71.86415489990235,168.4193576538086,71.83799489990234,168.4499576538086L71.82553489990234,168.4644576538086L71.80648489990234,168.48345765380859Q70.62769989990234,169.87035765380858,71.13898789990235,172.1676576538086Q71.67610489990234,174.5810576538086,73.75900489990235,176.5905576538086Q75.83533489990235,178.5935576538086,78.26521489990235,179.0414576538086Q80.58803489990234,179.46975765380859,81.93133489990234,178.2329576538086L82.28433489990235,177.9080576538086L82.29853489990234,177.9222576538086L142.44333489990234,116.52165765380859Q143.42503489990236,115.25365765380859,142.94513489990234,113.2181276538086Q142.43673489990235,111.06137765380859,140.57833489990236,109.2758376538086L140.31043489990236,109.0184476538086Z" fill-rule="evenodd" fill="#C6D6F7" fill-opacity="1"/></g><g transform="matrix(0.6936532855033875,-0.7203090190887451,0.7203090190887451,0.6936532855033875,-102.87914147928177,101.59139292954706)"><ellipse cx="73.16617631912231" cy="179.28787565231323" rx="5.170486927032471" ry="7.542979717254639" fill="#C6D6F7" fill-opacity="1"/><ellipse cx="73.16617631912231" cy="179.28787565231323" rx="5.170486927032471" ry="7.542979717254639" fill-opacity="0" stroke-opacity="1" stroke="#C6D6F7" fill="none" stroke-width="1"/></g><g><path d="M185.93773802490233,34.420565778808594L175.10033802490233,30.487902778808593C161.35533802490235,26.516555778808595,143.95493802490233,44.94208577880859,136.24435802490234,71.64548577880859C132.44063402490235,84.81668577880859,130.87401002490233,97.45278577880859,132.02157402490235,107.74218577880859L132.05381102490233,107.7679857788086C132.19564502490235,107.51658577880859,132.35682002490233,107.2779857788086,132.56311902490233,107.0716857788086C134.37471802490234,105.18918577880859,138.06239802490234,105.80808577880859,140.80881802490234,108.4513857788086C143.43923802490235,110.9785857788086,144.15483802490235,114.7435857788086,142.62683802490236,116.6841857788086L136.67629802490234,122.7829857788086C138.59105802490234,125.86468577880859,140.45423802490234,128.3660857788086,143.83243802490233,130.5834857788086C148.77733802490235,133.5684857788086,152.60033802490233,134.3614857788086,156.73293802490235,135.5544857788086C171.10963802490235,139.7064857788086,189.30313802490235,120.4362857788086,197.36833802490236,92.5079857788086C205.43343802490233,64.5860857788086,200.31453802490233,38.5788857788086,185.93773802490233,34.42702577880859L185.93773802490233,34.420565778808594ZM196.18203802490234,92.15978577880858C188.48433802490234,118.8116857788086,171.12253802490233,137.2044857788086,157.39693802490234,133.2404857788086C143.67123802490235,129.27518577880858,138.79090802490234,104.4606857788086,146.48863802490234,77.80878577880858C154.18633802490234,51.15698577880859,171.54803802490235,32.76368577880859,185.27373802490234,36.72858577880859C198.99933802490233,40.69348577880859,203.87973802490234,65.5079857788086,196.18203802490234,92.15978577880858Z" fill="#C6D6F7" fill-opacity="1"/><path d="M186.18583802490235,33.9786857788086Q191.58253802490233,35.581045778808594,195.33533802490234,41.04408577880859Q198.95733802490236,46.3168857788086,200.55933802490233,54.457185778808594Q202.15413802490235,62.560585778808594,201.50543802490233,72.27048577880859Q200.83463802490235,82.30858577880859,197.84863802490236,92.6466857788086Q194.86253802490234,102.98698577880859,190.07813802490233,111.8378857788086Q185.45013802490234,120.3994857788086,179.78103802490233,126.4045857788086Q174.08603802490234,132.4374857788086,168.21093802490233,134.9664857788086Q162.06233802490235,137.61448577880861,156.59423802490235,136.03448577880857Q156.00503802490235,135.86448577880861,154.84103802490233,135.54148577880858Q151.34873802490233,134.5714857788086,149.50913802490234,133.8864857788086Q146.44193802490236,132.74348577880858,143.57403802490234,131.0114857788086L143.56593802490235,131.0074857788086L143.55803802490234,131.00148577880861Q141.15955802490234,129.4272857788086,139.32937802490235,127.33678577880859Q137.90898802490236,125.71438577880859,136.25160802490234,123.04688577880859L136.04488802490235,122.7141857788086L142.24973802490234,116.35468577880859Q143.24733802490235,115.06628577880859,142.78803802490233,112.89108577880859Q142.29923802490234,110.5767857788086,140.46209802490233,108.81158577880859Q138.51339802490236,106.93608577880859,136.25282802490236,106.5574857788086Q134.09899802490236,106.19678577880859,132.91667802490235,107.4252857788086Q132.69766802490236,107.6442857788086,132.48930002490235,108.0136857788086L132.20049702490235,108.52558577880859L131.54759902490235,108.00338577880859L131.52465402490233,107.7975857788086Q130.66552502490234,100.0943857788086,131.77972402490235,90.71558577880859Q132.87205802490234,81.5206857788086,135.76397802490234,71.50678577880859Q138.61925802490234,61.618385778808594,143.19583802490234,53.152885778808596Q147.62233802490235,44.964685778808594,153.04593802490234,39.220395778808594Q158.49493802490235,33.44912577880859,164.11703802490234,31.028935778808595Q170.00373802490236,28.494865778808595,175.23913802490233,30.007550578808594L175.25523802490235,30.012190078808594L186.18583802490235,33.9786857788086ZM185.43773802490233,34.77102577880859L174.94563802490234,30.963665778808593Q170.06113802490233,29.558866778808593,164.51243802490234,31.947445778808593Q159.08013802490234,34.28592577880859,153.77303802490235,39.906915778808596Q148.43963802490234,45.555685778808595,144.07543802490235,53.62838577880859Q139.55012802490234,61.99928577880859,136.72472802490233,71.78418577880859Q133.85544802490233,81.71978577880859,132.77273802490234,90.8334857788086Q131.75527802490234,99.39808577880859,132.40171902490235,106.5305857788086Q133.90779802490235,105.1507857788086,136.41799802490235,105.5711857788086Q138.98382802490235,106.0009857788086,141.15553802490234,108.09108577880859Q142.14673802490233,109.0433857788086,142.78873802490233,110.1435857788086Q142.05223802490235,104.06318577880859,142.51653802490233,97.12278577880859Q143.15753802490235,87.54008577880859,146.00823802490234,77.67008577880858Q148.85893802490233,67.8000857788086,153.42623802490235,59.35098577880859Q157.84453802490233,51.177485778808595,163.25713802490233,45.444185778808595Q168.69583802490234,39.68317577880859,174.30783802490234,37.26750577880859Q180.18423802490236,34.737965778808594,185.41243802490234,36.248225778808596Q190.64063802490233,37.75848577880859,194.26323802490234,43.03138577880859Q197.72283802490233,48.06698577880859,199.25223802490234,55.84008577880859Q200.77423802490233,63.575585778808595,200.15413802490235,72.8458857788086Q199.51313802490233,82.4282857788086,196.66243802490234,92.29858577880859Q193.81183802490233,102.1683857788086,189.24443802490234,110.61768577880859Q184.82623802490235,118.7910857788086,179.41353802490235,124.5244857788086Q173.97483802490234,130.2854857788086,168.36283802490235,132.7014857788086Q162.48623802490235,135.2304857788086,157.25813802490234,133.7204857788086Q152.02993802490235,132.2104857788086,148.40743802490235,126.93728577880859Q145.28493802490235,122.39238577880859,143.73473802490236,115.6173857788086Q143.50713802490233,116.37438577880859,143.01973802490235,116.99348577880859L143.00333802490235,117.01438577880859L137.30872802490234,122.8507857788086Q138.80360802490233,125.2180857788086,140.08178802490235,126.6780857788086Q141.81923802490235,128.6626857788086,144.09893802490234,130.1604857788086Q146.88303802490233,131.8404857788086,149.85833802490234,132.9494857788086Q151.65773802490236,133.6194857788086,155.10863802490235,134.5784857788086Q156.27823802490235,134.9024857788086,156.87153802490235,135.0744857788086Q161.99583802490235,136.55348577880858,167.81553802490234,134.04848577880858Q173.50073802490235,131.6004857788086,179.05383802490235,125.7180857788086Q184.63293802490233,119.8082857788086,189.19843802490234,111.36238577880859Q193.93173802490236,102.60598577880859,196.88793802490233,92.3692857788086Q199.84403802490235,82.1346857788086,200.50763802490235,72.2037857788086Q201.14763802490234,62.6248857788086,199.57823802490236,54.650285778808595Q198.01603802490234,46.712785778808595,194.51103802490235,41.610285778808596Q190.92313802490236,36.38718577880859,185.79903802490236,34.907405778808595L185.43773802490233,34.803065778808595L185.43773802490233,34.77102577880859ZM174.70323802490233,38.18602577880859Q180.25083802490235,35.798055778808596,185.13493802490234,37.208935778808595Q190.01913802490236,38.619845778808596,193.43903802490235,43.59758577880859Q196.78153802490235,48.4628857788086,198.27103802490234,56.0330857788086Q199.76763802490234,63.639785778808594,199.15633802490234,72.7790857788086Q198.52253802490236,82.25418577880859,195.70163802490234,92.02108577880858Q192.88093802490235,101.78758577880859,188.36473802490235,110.1421857788086Q184.00903802490234,118.1999857788086,178.68633802490234,123.83798577880859Q173.38953802490235,129.4487857788086,167.96743802490235,131.7824857788086Q162.41973802490236,134.1704857788086,157.53563802490234,132.7594857788086Q152.65143802490235,131.3484857788086,149.23163802490234,126.37098577880859Q145.88913802490234,121.50588577880859,144.39963802490234,113.9354857788086Q142.90293802490234,106.32868577880859,143.51423802490234,97.18948577880859Q144.14813802490235,87.7140857788086,146.96893802490234,77.94758577880859Q149.78983802490234,68.18098577880859,154.30593802490233,59.82648577880859Q158.66183802490235,51.768485778808596,163.98423802490234,46.1306857788086Q169.28113802490236,40.51998577880859,174.70323802490233,38.18602577880859Z" fill-rule="evenodd" fill="#C6D6F7" fill-opacity="1"/></g><g><path d="M180.98745208740235,88.8417307006836Q170.38935208740236,117.80423070068359,155.61824408740233,121.51143070068359L155.86166008740236,122.4813307006836Q171.14645208740234,118.64533070068359,181.92655208740234,89.1853307006836Q192.72715208740235,59.66943070068359,178.35605208740233,45.72419970068359L177.65965208740235,46.441861700683596Q191.56515208740234,59.935130700683594,180.98745208740235,88.8417307006836Z" fill-rule="evenodd" fill="#C6D6F7" fill-opacity="1"/></g></g></g><g><path d="M40.3646732421875,87.556640625L15.1375732421875,102.255740625L15.1375732421875,131.660540625L40.3646732421875,146.359640625L65.5917732421875,131.660540625L65.5917732421875,102.255740625L40.3646732421875,87.556640625Z" fill="#3D57DA" fill-opacity="1"/><path d="M66.0917732421875,102.255740625Q66.0917732421875,102.190240625,66.07477324218749,102.126840625Q66.0578732421875,102.063540625,66.0252732421875,102.006640625Q65.99257324218749,101.94984062500001,65.94637324218749,101.903240625Q65.9000732421875,101.856740625,65.8434732421875,101.823740625L40.6163732421875,87.124626625Q40.5590732421875,87.091232625,40.4949732421875,87.073936625Q40.4309732421875,87.056640625,40.3646732421875,87.056640625Q40.2982732421875,87.056640625,40.2342732421875,87.073936625Q40.1702732421875,87.091232625,40.1129732421875,87.124626625L14.8858502421875,101.823740625Q14.8291932421875,101.856740625,14.7829652421875,101.903240625Q14.7367372421875,101.94984062500001,14.7040632421875,102.006640625Q14.671390242187499,102.063540625,14.6544812421875,102.126840625Q14.6375732421875,102.190240625,14.6375732421875,102.255740625L14.6375732421875,131.660540625Q14.6375732421875,131.726040625,14.6544812421875,131.789440625Q14.671390242187499,131.852840625,14.7040632421875,131.909640625Q14.7367372421875,131.966540625,14.7829652421875,132.013040625Q14.8291932421875,132.059540625,14.8858502421875,132.092540625L40.1129732421875,146.791640625Q40.1702732421875,146.82504062499999,40.2342732421875,146.842340625Q40.2982732421875,146.859640625,40.3646732421875,146.859640625Q40.4309732421875,146.859640625,40.4949732421875,146.842340625Q40.5590732421875,146.82504062499999,40.6163732421875,146.791640625L65.8434732421875,132.092540625Q65.9000732421875,132.059540625,65.94637324218749,132.013040625Q65.99257324218749,131.966540625,66.0252732421875,131.909640625Q66.0578732421875,131.852840625,66.07477324218749,131.789440625Q66.0917732421875,131.726040625,66.0917732421875,131.660540625L66.0917732421875,102.255740625ZM65.0917732421875,102.543140625L40.3646732421875,88.135325625L15.6375732421875,102.543140625L15.6375732421875,131.373140625L40.3646732421875,145.780940625L65.0917732421875,131.373140625L65.0917732421875,102.543140625Z" fill-rule="evenodd" fill="#C6D6F7" fill-opacity="1"/></g><g><g><path d="M65.34038486816407,101.82359156347657L61.994394868164065,103.77058256347657L62.49733486816406,104.63490256347656L65.09185486816406,103.12518556347656L65.09185486816406,106.12394256347656L66.09185486816406,106.12394256347656L66.09185486816406,102.25575256347656Q66.09185486816406,102.12086756347657,66.02401486816406,102.00428256347656Q65.97399486816406,101.91832056347656,65.89488486816407,101.85804356347656Q65.81577486816406,101.79776756347657,65.71961486816406,101.77235256347656Q65.62346486816406,101.74693856347656,65.52490486816406,101.76025456347656Q65.42634486816407,101.77357156347657,65.34038486816407,101.82359156347657Z" fill-rule="evenodd" fill="#C6D6F7" fill-opacity="1"/></g><g transform="matrix(-0.8639967441558838,0.5034974217414856,-0.5034974217414856,-0.8639967441558838,158.35097206765295,172.28263267969214)"><line x1="55.90724182128906" y1="107.02796936035156" x2="66.63734436035156" y2="107.02796936035156" fill-opacity="0" stroke-opacity="1" stroke="#C6D6F7" fill="none" stroke-width="1" stroke-dasharray="11.100000381469727 11.100000381469727" stroke-linejoin="round"/></g><g><path d="M39.86463928222656,116.96138982910156L39.86463928222656,120.82957982910156L40.86463928222656,120.82957982910156L40.86463928222656,117.24816982910156L43.95663928222656,115.43953682910156L43.451729282226566,114.57636282910157L40.11218628222656,116.52979982910156Q40.055678282226566,116.56284982910157,40.00958428222656,116.60933982910156Q39.963490282226566,116.65582982910156,39.93091928222656,116.71261982910156Q39.89834728222656,116.76939982910156,39.881493282226565,116.83265982910156Q39.86463928222656,116.89591982910156,39.86463928222656,116.96138982910156Z" fill-rule="evenodd" fill="#C6D6F7" fill-opacity="1"/></g><g transform="matrix(0,1,-1,0,168.09243774414062,88.0079345703125)"><line x1="40.04225158691406" y1="127.55018615722656" x2="50.87319564819336" y2="127.55018615722656" fill-opacity="0" stroke-opacity="1" stroke="#C6D6F7" fill="none" stroke-width="1" stroke-dasharray="11.199999809265137 11.199999809265137" stroke-linejoin="round"/></g><g><path d="M40.61647128222656,146.79148826660156L43.95600928222656,144.84449826660156L43.452349282226564,143.98059826660156L40.86463928222656,145.48926826660156L40.86463928222656,142.49134826660156L39.86463928222656,142.49134826660156L39.86463928222656,146.35953826660156Q39.86463928222656,146.49464826660156,39.93268928222656,146.61137826660155Q39.957493282226565,146.65391826660155,39.990119282226566,146.69080826660155Q40.022746282226564,146.72768826660158,40.06194128222656,146.75750826660158Q40.10113728222656,146.78731826660157,40.145396282226564,146.80890826660158Q40.18965528222656,146.83050826660156,40.237277282226565,146.84304826660156Q40.28489808222656,146.85558826660156,40.33405148222656,146.85860826660155Q40.383204982226566,146.86161826660157,40.43200168222656,146.85498826660157Q40.480798282226566,146.84834826660156,40.52736328222656,146.83231826660156Q40.57392828222656,146.81629826660156,40.61647128222656,146.79148826660156Z" fill-rule="evenodd" fill="#C6D6F7" fill-opacity="1"/></g><g transform="matrix(0.8639967441558838,-0.5034974217414856,0.5034974217414856,0.8639967441558838,-64.23012776143241,44.38788487576039)"><line x1="50.04908752441406" y1="140.58705139160156" x2="60.77919006347656" y2="140.58705139160156" fill-opacity="0" stroke-opacity="1" stroke="#C6D6F7" fill="none" stroke-width="1" stroke-dasharray="11.100000381469727 11.100000381469727" stroke-linejoin="round"/></g><g><path d="M66.09185486816406,131.66056365722656L66.09185486816406,127.79237365722656L65.09185486816406,127.79237365722656L65.09185486816406,131.37302365722655L61.994394868164065,133.17540365722655L62.49733486816406,134.03972365722657L65.84332486816406,132.09272365722657Q65.90002486816407,132.05973365722656,65.94630486816406,132.01322365722658Q65.99257486816407,131.96670365722656,66.02528486816406,131.90983365722656Q66.05799486816406,131.85295365722655,66.07492486816406,131.78956365722655Q66.09185486816406,131.72617365722655,66.09185486816406,131.66056365722656Z" fill-rule="evenodd" fill="#C6D6F7" fill-opacity="1"/></g><g transform="matrix(0,-1,1,0,-54.6573486328125,186.48550415039062)"><line x1="65.91407775878906" y1="120.07142639160156" x2="76.75146961212158" y2="120.07142639160156" fill-opacity="0" stroke-opacity="1" stroke="#C6D6F7" fill="none" stroke-width="1" stroke-dasharray="11.199999809265137 11.199999809265137" stroke-linejoin="round"/></g></g><g><g transform="matrix(0.863899827003479,0.5036635994911194,-0.5036635994911194,0.863899827003479,53.68084354773646,6.4124306860819615)"><line x1="14.975238800048828" y1="102.03413391113281" x2="18.840896606445312" y2="102.03413391113281" fill-opacity="0" stroke-opacity="1" stroke="#C6D6F7" fill="none" stroke-width="1" stroke-linejoin="round"/></g><g transform="matrix(0.8639967441558838,0.5034974217414856,-0.5034974217414856,0.8639967441558838,57.752332758031116,2.3655278411913514)"><line x1="24.497455596923828" y1="107.58515930175781" x2="35.22755813598633" y2="107.58515930175781" fill-opacity="0" stroke-opacity="1" stroke="#C6D6F7" fill="none" stroke-width="1" stroke-dasharray="11.100000381469727 11.100000381469727" stroke-linejoin="round"/></g><g transform="matrix(0.8631739020347595,0.5049067139625549,-0.5049067139625549,0.8631739020347595,63.25244729316205,-2.8378893203482676)"><line x1="36.86232376098633" y1="114.78608703613281" x2="40.73123288154602" y2="114.78608703613281" fill-opacity="0" stroke-opacity="1" stroke="#C6D6F7" fill="none" stroke-width="1" stroke-linejoin="round"/></g></g><g><g><path d="M40.24859538574219,42.807960510253906L25.433395385742188,51.440480510253906L25.433395385742188,68.6990605102539L27.88325538574219,70.1238605102539L40.24859538574219,77.33156051025391L55.05729538574219,68.6990605102539L55.05729538574219,51.440480510253906L40.24859538574219,42.807960510253906Z" fill="#3D57DA" fill-opacity="1"/><path d="M55.55729538574219,51.440480510253906Q55.55729538574219,51.37492051025391,55.54039538574219,51.311580510253904Q55.52349538574219,51.248230510253904,55.49089538574219,51.19139051025391Q55.45819538574219,51.134540510253906,55.41199538574219,51.088040510253904Q55.36579538574219,51.04153051025391,55.30909538574218,51.008510510253906L40.50039538574219,42.37599551025391Q40.44309538574219,42.34258351025391,40.378995385742186,42.32527551025391Q40.314995385742186,42.307966510253905,40.24859538574219,42.307960510253906Q40.18229538574219,42.30795451025391,40.11819538574218,42.32525051025391Q40.05419538574219,42.342546510253904,39.996895385742185,42.375948510253906L25.181670385742187,51.00847051025391Q25.125014385742187,51.041480510253905,25.078786385742188,51.08798051025391Q25.03255838574219,51.134490510253904,24.99988538574219,51.19134051025391Q24.967212385742187,51.24820051025391,24.95030338574219,51.31155051025391Q24.933395385742188,51.374910510253905,24.933395385742188,51.440480510253906L24.933395385742188,68.6990605102539Q24.933395385742188,68.7646605102539,24.950330385742188,68.8280605102539Q24.967265385742188,68.8914605102539,24.999987385742187,68.9483605102539Q25.032710385742188,69.0052605102539,25.079003385742187,69.0517605102539Q25.125297385742186,69.09826051025391,25.182026385742187,69.13126051025391L27.631885385742187,70.5560605102539L39.99679538574219,77.76356051025391Q40.05409538574219,77.79696051025391,40.11819538574218,77.81426051025392Q40.18219538574219,77.83156051025391,40.24859538574219,77.83156051025391Q40.31489538574219,77.83156051025391,40.378995385742186,77.81426051025392Q40.44309538574219,77.79696051025391,40.50039538574219,77.76356051025391L55.30909538574218,69.1310605102539Q55.36579538574219,69.0980605102539,55.41199538574219,69.0515605102539Q55.45819538574219,69.00506051025391,55.49089538574219,68.9481605102539Q55.52349538574219,68.8913605102539,55.54039538574219,68.8279605102539Q55.55729538574219,68.7646605102539,55.55729538574219,68.6990605102539L55.55729538574219,51.440480510253906ZM54.55729538574219,51.72776051025391L40.24849538574219,43.386679510253906L25.933395385742188,51.72783051025391L25.933395385742188,68.4114605102539L28.134625385742186,69.69166051025391L40.24859538574219,76.7528605102539L54.55729538574219,68.41176051025391L54.55729538574219,51.72776051025391Z" fill-rule="evenodd" fill="#C6D6F7" fill-opacity="1"/></g><g><g><path d="M40.74860382080078,76.46150489990234L40.74860382080078,73.46358489990234L39.74860382080078,73.46358489990234L39.74860382080078,77.33177489990234Q39.74860382080078,77.38102489990234,39.758210820800784,77.42932489990234Q39.767818820800784,77.47762489990234,39.78666382080078,77.52312489990234Q39.80550982080078,77.56861489990234,39.83286882080078,77.60956489990234Q39.86022882080078,77.65051489990235,39.89505082080078,77.68533489990234Q39.92987282080078,77.72015489990234,39.97081882080078,77.74751489990234Q40.01176482080078,77.77487489990234,40.05726182080078,77.79371489990234Q40.10275882080078,77.81256489990234,40.15105872080078,77.82217489990235Q40.19935812080078,77.83177489990234,40.24860382080078,77.83177489990234Q40.38371382080078,77.83177489990234,40.50043582080078,77.76372489990234L43.83997382080078,75.81674489990235L43.33631382080078,74.95284489990235L40.74860382080078,76.46150489990234Z" fill-rule="evenodd" fill="#C6D6F7" fill-opacity="1"/></g><g><path d="M40.74860382080078,60.35408489990235L43.83997382080078,58.551784899902344L43.33631382080078,57.68788489990234L39.99677182080078,59.63487489990234Q39.94013782080078,59.66789489990234,39.89392882080078,59.714394899902345Q39.84772082080078,59.76089489990235,39.81506282080078,59.817744899902344Q39.78240482080078,59.874584899902345,39.76550382080078,59.93792489990234Q39.74860382080078,60.001264899902345,39.74860382080078,60.06682489990234L39.74860382080078,63.93501489990234L40.74860382080078,63.93501489990234L40.74860382080078,60.35408489990235Z" fill-rule="evenodd" fill="#C6D6F7" fill-opacity="1"/></g><g><path d="M54.55738210205078,52.31091168115234L54.55738210205078,55.30882568115234L55.55738210205078,55.30882568115234L55.55738210205078,51.440635681152344Q55.55738210205078,51.391389981152344,55.54777210205078,51.343090581152346Q55.53817210205078,51.29479068115234,55.51932210205078,51.249293681152345Q55.50048210205078,51.20379668115234,55.47312210205078,51.16285068115234Q55.44576210205078,51.121904681152344,55.41094210205078,51.087082681152346Q55.37611210205078,51.05226068115234,55.335172102050784,51.024900681152346Q55.29422210205078,50.99754168115234,55.24872210205078,50.978695681152345Q55.203232102050784,50.959850681152346,55.15493210205078,50.950242681152346Q55.10663210205078,50.940635681152344,55.05738210205078,50.940635681152344Q54.92227210205078,50.940635681152344,54.80555210205078,51.00868568115234L51.46601010205078,52.95567568115234L51.96967410205078,53.819575681152344L54.55738210205078,52.31091168115234Z" fill-rule="evenodd" fill="#C6D6F7" fill-opacity="1"/></g><g><path d="M54.55738210205078,68.41194654052734L51.46601010205078,70.21425654052734L51.96967410205078,71.07815654052735L55.30921210205078,69.13115654052734Q55.36585210205078,69.09814654052734,55.41206210205078,69.05163654052734Q55.458272102050785,69.00513654052735,55.49092210205078,68.94829654052734Q55.52358210205078,68.89144654052734,55.54048210205078,68.82810654052734Q55.55738210205078,68.76476654052735,55.55738210205078,68.69920654052734L55.55738210205078,64.83101654052734L54.55738210205078,64.83101654052734L54.55738210205078,68.41194654052734Z" fill-rule="evenodd" fill="#C6D6F7" fill-opacity="1"/></g></g><g><g transform="matrix(0.8643220067024231,0.5029388070106506,-0.5029388070106506,0.8643220067024231,29.440365537539492,-5.69274900812934)"><line x1="25.271286010742188" y1="51.21923065185547" x2="29.142515182495117" y2="51.21923065185547" fill-opacity="0" stroke-opacity="1" stroke="#C6D6F7" fill="none" stroke-width="1" stroke-linejoin="round"/></g><g transform="matrix(0.8643220067024231,0.5029388070106506,-0.5029388070106506,0.8643220067024231,34.355594471261156,-10.554886804297439)"><line x1="36.74052429199219" y1="57.89818572998047" x2="40.61175346374512" y2="57.89818572998047" fill-opacity="0" stroke-opacity="1" stroke="#C6D6F7" fill="none" stroke-width="1" stroke-linejoin="round"/></g></g></g><g><g><path d="M117.74775485839844,0.322265625L95.66685485839844,13.190465625L95.66685485839844,38.920365625L117.74775485839844,51.788565625L139.82235485839846,38.920365625L139.82235485839846,13.190465625L117.74775485839844,0.322265625Z" fill="#3D57DA" fill-opacity="1"/><path d="M140.32235485839846,13.190465625Q140.32235485839846,13.124865625,140.30545485839843,13.061565625Q140.28855485839844,12.998165625,140.25585485839844,12.941365625Q140.22315485839843,12.884565625,140.17695485839843,12.838065625Q140.13075485839843,12.791465625,140.07415485839843,12.758465625L117.99965485839843,-0.10969737499999999Q117.94225485839844,-0.14311237500000001,117.87825485839844,-0.16042137499999998Q117.81415485839844,-0.177730375,117.74785485839844,-0.177734375Q117.68145485839844,-0.177738375,117.61745485839845,-0.160437375Q117.55335485839844,-0.143137375,117.49605485839844,-0.10972937500000002L95.41509985839843,12.758465625Q95.35844985839844,12.791465625,95.31222685839843,12.837965625Q95.26600485839843,12.884465625,95.23333585839843,12.941365625Q95.20066685839844,12.998165625,95.18376085839844,13.061565625Q95.16685485839844,13.124865625,95.16685485839844,13.190465625L95.16685485839844,38.920365625Q95.16685485839844,38.985965625,95.18376085839844,39.049365625Q95.20066685839844,39.112665625,95.23333585839843,39.169565625Q95.26600485839843,39.226365625,95.31222685839843,39.272865625Q95.35844985839844,39.319365625,95.41509985839843,39.352365625L117.49605485839844,52.220565625Q117.55335485839844,52.253965625,117.61745485839845,52.271265625Q117.68145485839844,52.288565625,117.74785485839844,52.288565625Q117.81415485839844,52.288565625,117.87825485839844,52.271265625Q117.94225485839844,52.253965625,117.99965485839843,52.220565625L140.07415485839843,39.352365625Q140.13075485839843,39.319365625,140.17695485839843,39.272865625Q140.22315485839843,39.226365625,140.25585485839844,39.169465625Q140.28855485839844,39.112665625,140.30545485839843,39.049265625Q140.32235485839846,38.985965625,140.32235485839846,38.920365625L140.32235485839846,13.190465625ZM139.32235485839846,13.477765625L117.74775485839844,0.900997625L96.16685485839844,13.477765625L96.16685485839844,38.633065625L117.74775485839844,51.209865625L139.32235485839846,38.633165625L139.32235485839846,13.477765625Z" fill-rule="evenodd" fill="#C6D6F7" fill-opacity="1"/></g><g><g><path d="M118.24778747558594,50.91861244384766L118.24778747558594,47.920692443847656L117.24778747558594,47.920692443847656L117.24778747558594,51.788882443847655Q117.24778747558594,51.838132443847655,117.25739447558594,51.88643244384765Q117.26700247558594,51.93473244384766,117.28584747558594,51.980232443847655Q117.30469347558594,52.025722443847656,117.33205247558594,52.06667244384766Q117.35941247558594,52.10762244384766,117.39423447558593,52.142442443847656Q117.42905647558594,52.17726244384765,117.47000247558594,52.204622443847654Q117.51094847558593,52.231982443847656,117.55644547558593,52.25082244384765Q117.60194247558594,52.269672443847654,117.65024237558593,52.279282443847656Q117.69854177558594,52.288882443847655,117.74778747558594,52.288882443847655Q117.88289747558593,52.288882443847655,117.99961947558593,52.220832443847655L121.33915747558594,50.27385244384766L120.83549747558594,49.40995244384766L118.24778747558594,50.91861244384766Z" fill-rule="evenodd" fill="#C6D6F7" fill-opacity="1"/></g><g transform="matrix(0,-1,1,0,76.14533233642578,159.9950180053711)"><line x1="118.07017517089844" y1="41.424842834472656" x2="127.07017421722412" y2="41.424842834472656" fill-opacity="0" stroke-opacity="1" stroke="#C6D6F7" fill="none" stroke-width="1" stroke-dasharray="9.3100004196167 9.3100004196167" stroke-linejoin="round"/></g><g><path d="M118.24778747558594,26.345860412597656L121.33915747558594,24.543560412597657L120.83549747558594,23.679660412597656L117.49595547558594,25.626650412597655Q117.43932147558594,25.659670412597656,117.39311247558594,25.706170412597658Q117.34690447558594,25.752670412597656,117.31424647558593,25.809520412597657Q117.28158847558593,25.866360412597658,117.26468747558594,25.929700412597658Q117.24778747558594,25.993040412597658,117.24778747558594,26.058600412597656L117.24778747558594,29.926790412597654L118.24778747558594,29.926790412597654L118.24778747558594,26.345860412597656Z" fill-rule="evenodd" fill="#C6D6F7" fill-opacity="1"/></g><g transform="matrix(0.8639363050460815,-0.50360107421875,0.50360107421875,0.8639363050460815,6.419542615270984,66.55754806236382)"><line x1="126.38169860839844" y1="20.898719787597656" x2="135.29173946380615" y2="20.898719787597656" fill-opacity="0" stroke-opacity="1" stroke="#C6D6F7" fill="none" stroke-width="1" stroke-dasharray="9.210000038146973 9.210000038146973" stroke-linejoin="round"/></g><g><path d="M139.32231282714844,14.060743834472657L139.32231282714844,17.058657834472655L140.32231282714844,17.058657834472655L140.32231282714844,13.190467834472656Q140.32231282714844,13.141222134472656,140.31270282714843,13.092922734472657Q140.30310282714845,13.044622834472657,140.28425282714844,12.999125834472656Q140.26541282714842,12.953628834472656,140.23805282714844,12.912682834472657Q140.21069282714845,12.871736834472657,140.17587282714842,12.836914834472656Q140.14104282714842,12.802092834472656,140.10010282714845,12.774732834472657Q140.05915282714844,12.747373834472656,140.01365282714843,12.728527834472656Q139.96816282714843,12.709682834472655,139.91986282714845,12.700074834472657Q139.87156282714844,12.690467834472656,139.82231282714844,12.690467834472656Q139.68720282714844,12.690467834472656,139.57048282714842,12.758517834472656L136.23094082714843,14.705507834472655L136.73460482714844,15.569407834472656L139.32231282714844,14.060743834472657Z" fill-rule="evenodd" fill="#C6D6F7" fill-opacity="1"/></g><g transform="matrix(0,1,-1,0,162.5544662475586,-116.44550323486328)"><line x1="139.49998474121094" y1="22.554481506347656" x2="148.49998378753662" y2="22.554481506347656" fill-opacity="0" stroke-opacity="1" stroke="#C6D6F7" fill="none" stroke-width="1" stroke-dasharray="9.3100004196167 9.3100004196167" stroke-linejoin="round"/></g><g><path d="M139.32232282714844,38.633694240722654L136.23031982714843,40.44233424072266L136.73522582714844,41.305504240722655L140.07477282714845,39.352064240722655Q140.13128282714842,39.31901424072266,140.17737282714845,39.27252424072266Q140.22347282714844,39.226034240722655,140.25604282714843,39.169244240722655Q140.28861282714843,39.11246424072266,140.30546282714843,39.04920424072266Q140.32232282714844,38.98594424072266,140.32232282714844,38.920474240722655L140.32232282714844,35.052284240722656L139.32232282714844,35.052284240722656L139.32232282714844,38.633694240722654Z" fill-rule="evenodd" fill="#C6D6F7" fill-opacity="1"/></g><g transform="matrix(-0.8639363050460815,0.50360107421875,-0.50360107421875,-0.8639363050460815,266.47450720831876,15.164242972899046)"><line x1="131.18870544433594" y1="43.080360412597656" x2="140.09874629974365" y2="43.080360412597656" fill-opacity="0" stroke-opacity="1" stroke="#C6D6F7" fill="none" stroke-width="1" stroke-dasharray="9.210000038146973 9.210000038146973" stroke-linejoin="round"/></g></g><g><g transform="matrix(0.863899827003479,0.5036635994911194,-0.5036635994911194,0.863899827003479,19.782074061504204,-46.268994203801185)"><line x1="95.50450134277344" y1="12.969099044799805" x2="99.37015914916992" y2="12.969099044799805" fill-opacity="0" stroke-opacity="1" stroke="#C6D6F7" fill="none" stroke-width="1" stroke-linejoin="round"/></g><g transform="matrix(0.8639363050460815,0.50360107421875,-0.50360107421875,0.8639363050460815,23.417302059619033,-49.857823976930604)"><line x1="103.97593688964844" y1="17.907331466674805" x2="112.88597774505615" y2="17.907331466674805" fill-opacity="0" stroke-opacity="1" stroke="#C6D6F7" fill="none" stroke-width="1" stroke-dasharray="9.210000038146973 9.210000038146973" stroke-linejoin="round"/></g><g transform="matrix(0.8643220067024231,0.5029388070106506,-0.5029388070106506,0.8643220067024231,27.766739246872817,-54.14634177540154)"><line x1="114.23973083496094" y1="23.890485763549805" x2="118.11096000671387" y2="23.890485763549805" fill-opacity="0" stroke-opacity="1" stroke="#C6D6F7" fill="none" stroke-width="1" stroke-linejoin="round"/></g></g></g><g><ellipse cx="157.04217553138733" cy="43.37542724609375" rx="2.578796625137329" ry="2.57879638671875" fill="#C6D6F7" fill-opacity="1"/></g><g><ellipse cx="204.1890950202942" cy="33.86609673500061" rx="1.6246418952941895" ry="1.6246416568756104" fill="#C6D6F7" fill-opacity="1"/></g><g><ellipse cx="116.99999856948853" cy="75.87475395202637" rx="4.119627475738525" ry="4.119626998901367" fill="#C6D6F7" fill-opacity="1"/></g><g><ellipse cx="211.44837045669556" cy="94.7192440032959" rx="5.086676120758057" ry="5.086675643920898" fill="#C6D6F7" fill-opacity="1"/></g><g transform="matrix(-0.8833799362182617,-0.46865758299827576,0.46865758299827576,-0.8833799362182617,319.5324960788348,204.92949344291264)"><line x1="185.263427734375" y1="62.208740234375" x2="206.4206085205078" y2="62.208740234375" fill-opacity="0" stroke-opacity="1" stroke="#C6D6F7" fill="none" stroke-width="1" stroke-linejoin="round"/></g></g></g></g></svg>