<svg xmlns="http://www.w3.org/2000/svg" xmlns:xlink="http://www.w3.org/1999/xlink" fill="none" version="1.1" width="265.5135192871094" height="160" viewBox="0 0 265.5135192871094 160"><defs><clipPath id="master_svg0_1506_9439"><rect x="0" y="0" width="265.5135192871094" height="160" rx="0"/></clipPath></defs><g clip-path="url(#master_svg0_1506_9439)"><g><g><g><path d="M112.379097265625,116.05208593273163C112.379097265625,114.88438593273163,112.999297265625,113.73248593273163,114.234497265625,113.17218593273162L175.596597265625,85.55074593273163L175.231797265625,85.38841893273162C171.55239726562502,83.69709993273163,166.919197265625,84.49825173273163,161.962897265625,86.72367593273162L95.211897265625,117.05228593273162C93.783901265625,117.69628593273163,93.064697265625,119.03158593273163,93.064697265625,120.38248593273163C93.064697265625,121.73348593273163,93.783909265625,123.07398593273163,95.211897265625,123.71808593273163L124.219997265625,136.47368593273163L145.858897265625,146.21318593273162L170.139997265625,157.14128593273165L171.932797265625,157.94768593273164L172.787497265625,158.32988593273163C177.743797265625,160.55528593273164,183.398497265625,160.55528593273164,188.349597265625,158.32988593273163L189.761897265625,157.69628593273163L189.027097265625,157.74348593273163C186.73399726562502,157.7591859327316,184.440797265625,157.28788593273163,182.309297265625,156.32438593273162L181.574397265625,155.98928593273163L114.427297265625,125.76548593273162C113.202597265625,125.23138593273163,112.597997265625,124.08458593273163,112.597997265625,122.94308593273163" fill="#3D57DA" fill-opacity="1"/></g><g><g><g></g><g></g></g><g><g><path d="M2.146288046875,85.53650700450898L3.376248046875,84.99193900450898L2.971398046875,84.07755500450897L1.741438046875,84.62212590450898Q0.783976046875,85.04967000450897,0.253616626875,85.91588700450897Q-0.239501953125,86.72127700450898,-0.239501953125,87.68698700450898Q-0.239501953125,88.65369700450897,0.253950206875,89.45732700450897Q0.785842046875,90.32355700450897,1.743558046875,90.74230700450897L63.502098046875,118.54484700450897L64.18029804687501,118.84884700450897Q67.177598046875,120.20034700450897,70.466198046875,120.20034700450897Q73.754398046875,120.20034700450897,76.764098046875,118.84874700450897L77.863198046875,118.35674700450897L139.205498046875,90.74011700450897Q140.152498046875,90.32205700450898,140.685498046875,89.45820700450898Q141.183498046875,88.65106700450897,141.183498046875,87.68698700450898Q141.183498046875,86.72601700450898,140.683498046875,85.91625700450898Q140.153498046875,85.05695300450897,139.208498046875,84.62465100450898L137.972498046875,84.07755600450898L137.567498046875,84.99193800450897L138.792498046875,85.53398400450897Q139.461498046875,85.84018700450898,139.832498046875,86.44161700450897Q140.183498046875,87.00987700450898,140.183498046875,87.68698700450898Q140.183498046875,88.36746700450897,139.834498046875,88.93317700450898Q139.464498046875,89.53261700450898,138.794498046875,89.82826700450897L77.454698046875,117.44404700450897L76.354398046875,117.93644700450898Q73.540098046875,119.20034700450897,70.466198046875,119.20034700450897Q67.392598046875,119.20034700450897,64.589298046875,117.93634700450897L63.912598046875,117.63294700450896L2.144178046875,89.82606700450897Q1.473878046875,89.53298700450897,1.106124046875,88.93406700450898Q0.760498046875,88.37118700450897,0.760498046875,87.68698700450898Q0.760498046875,87.00309700450897,1.1064570468750001,86.43805700450898Q1.474878046875,85.83632700450897,2.146288046875,85.53650700450898Z" fill-rule="evenodd" fill="#3D57DA" fill-opacity="1"/></g><g><path d="M2.154381875,79.23053723888397L32.017271875,65.78895223888397L31.606771875,64.87706823888398L1.743941875,78.31863723888398Q0.7627848749999999,78.76023723888397,0.229512075,79.66223723888398Q-0.27195112499999996,80.51053723888397,-0.233840125,81.50603723888398Q-0.19546012499999998,82.43643723888397,0.295965775,83.20113723888397Q0.826604875,84.02693723888397,1.747951875,84.43193723888398L2.971841875,84.98953723888397L63.517771875,112.24533723888396L64.182371875,112.53973723888397Q67.177671875,113.89033723888397,70.466271875,113.89033723888397Q73.754471875,113.89033723888397,76.764171875,112.53873723888398L77.863271875,112.04673723888396L137.975671875,84.99043723888397L139.207671875,84.42923723888397Q140.117671875,84.02533723888396,140.648671875,83.20203723888397Q141.144671875,82.43373723888396,141.183671875,81.50753723888397Q141.216671875,80.50793723888397,140.718671875,79.66273723888398Q140.185671875,78.75973723888397,139.205671875,78.31863723888398L108.941671875,64.69381023888397L108.530671875,65.60566423888397L138.794671875,79.23053723888397Q139.485671875,79.54133723888397,139.856671875,80.17073723888397Q140.207671875,80.76523723888397,140.183671875,81.46633723888397Q140.156671875,82.12033723888398,139.808671875,82.65963723888397Q139.439671875,83.23233723888397,138.792671875,83.51913723888397L137.565671875,84.07853723888397L77.454771875,111.13403723888396L76.354571875,111.62643723888397Q73.540271875,112.89033723888397,70.466271875,112.89033723888397Q67.392671875,112.89033723888397,64.587471875,111.62543723888398L63.928271875,111.33343723888397L3.386391875,84.07943723888397L2.1503618749999998,83.51643723888398Q1.504941875,83.23273723888397,1.137238875,82.66053723888398Q0.792504875,82.12413723888397,0.765427875,81.46783723888397Q0.738568875,80.76623723888397,1.090338875,80.17113723888397Q1.462291875,79.54203723888398,2.154381875,79.23053723888397Z" fill-rule="evenodd" fill="#3D57DA" fill-opacity="1"/></g><g><path d="M-0.239501953125,88.01155958263398L-0.239501953125,87.69213958263397L-0.239501953125,81.48713958263397L0.760498046875,81.48713958263397L0.760498046875,87.69213958263397L0.760498046875,88.01155958263398L-0.239501953125,88.01155958263398Z" fill-rule="evenodd" fill="#3D57DA" fill-opacity="1"/></g><g><path d="M140.1837158203125,88.01155958263398L140.1837158203125,87.69213958263397L140.1837158203125,81.48713958263397L141.1837158203125,81.48713958263397L141.1837158203125,87.69213958263397L141.1837158203125,88.01155958263398L140.1837158203125,88.01155958263398Z" fill-rule="evenodd" fill="#3D57DA" fill-opacity="1"/></g><g><path d="M63.22314453125,118.04673302013397L63.22314453125,111.78936902013398L63.22314453125,111.57991302013397L64.22314453125,111.57991302013397L64.22314453125,111.78936902013398L64.22314453125,118.04673302013397L63.22314453125,118.04673302013397Z" fill-rule="evenodd" fill="#3D57DA" fill-opacity="1"/></g><g><path d="M77.158935546875,118.04673302013397L77.158935546875,117.90011302013397L77.158935546875,111.59038782013397L77.158935546875,111.57991302013397L78.158935546875,111.57991302013397L78.158935546875,111.59038782013397L78.158935546875,117.90011302013397L78.158935546875,118.04673302013397L77.158935546875,118.04673302013397Z" fill-rule="evenodd" fill="#3D57DA" fill-opacity="1"/></g></g></g><g><g><g></g><g></g></g><g><g><path d="M114.62942349609375,120.75053216320038L115.96882349609375,120.15883116320038L115.56473349609375,119.24411316320038L114.22533349609375,119.83581616320038Q113.19583149609375,120.29797016320038,112.62674939609374,121.22970216320037Q112.09808349609375,122.09526216320037,112.09808349609375,123.13124216320038Q112.09808349609375,124.16867216320038,112.62720499609375,125.03157216320038Q113.19844449609376,125.96314216320037,114.22750349609375,126.41191216320038L181.36928349609374,156.63337216320036L182.10178349609373,156.96747216320037Q185.35618349609376,158.43427216320038,188.91968349609374,158.43427216320038Q192.48268349609376,158.43427216320038,195.74648349609373,156.96867216320038L196.93948349609374,156.4348721632004L263.62408349609376,126.41478216320039Q264.6400834960938,125.96595216320038,265.2120834960938,125.04025216320038Q265.7480834960937,124.17305216320038,265.7480834960937,123.13649216320037Q265.7480834960937,122.10144216320037,265.2120834960938,121.23152216320038Q264.64208349609373,120.30576016320038,263.62508349609374,119.84327316320038L262.28108349609374,119.24936116320038L261.87708349609375,120.16408116320038L263.21108349609375,120.75358216320038Q263.95108349609376,121.08978216320038,264.3610834960938,121.75569216320038Q264.7480834960937,122.38451216320038,264.7480834960937,123.13649216320037Q264.7480834960937,123.88900216320037,264.3610834960938,124.51457216320038Q263.9520834960938,125.17651216320039,263.21308349609376,125.50292216320038L196.53098349609377,155.5220721632004L195.33688349609375,156.05647216320037Q192.26848349609375,157.43427216320038,188.91968349609374,157.43427216320038Q185.57118349609374,157.43427216320038,182.51678349609375,156.05767216320038L181.77968349609375,155.7214721632004L114.62724349609375,125.49528216320037Q113.88650349609375,125.17225216320038,113.47969549609375,124.50882216320038Q113.09808349609375,123.88649216320037,113.09808349609375,123.13124216320038Q113.09808349609375,122.37649216320038,113.48015649609376,121.75094216320038Q113.88784349609375,121.08345216320038,114.62942349609375,120.75053216320038Z" fill-rule="evenodd" fill="#3D57DA" fill-opacity="1"/></g><g><path d="M196.98590830078126,149.55126396007537Q196.96330830078125,149.5644639600754,196.93930830078125,149.57516396007537L195.74590830078125,150.1092639600754Q192.48260830078124,151.57446396007538,188.91950830078125,151.57446396007538Q185.35610830078124,151.57446396007538,182.10380830078125,150.10866396007538L181.38710830078125,149.79036396007538L115.56142830078124,120.15726396007537L114.22076830078124,119.54926396007538Q113.23330330078124,119.11656396007538,112.66369370078125,118.22816396007538Q112.13624630078125,117.40536396007538,112.09833930078125,116.40566396007537Q112.06067730078125,115.33206396007537,112.59728873078124,114.42236396007539Q113.16866730078125,113.45376396007538,114.22128830078125,112.97786396007538L182.10400830078123,82.42377096007537Q185.35610830078124,80.95806396007538,188.92150830078126,80.95806396007538Q192.48670830078123,80.95806396007538,195.74670830078125,82.42368096007537L263.62900830078127,112.97756396007537Q264.68200830078126,113.45376396007538,265.25400830078127,114.42236396007539Q265.7900083007812,115.33206396007537,265.7530083007813,116.40426396007538Q265.7150083007813,117.40046396007537,265.18000830078125,118.22766396007538Q264.61100830078124,119.10946396007537,263.6280083007813,119.55006396007538L262.29100830078124,120.15666396007538L196.98590830078126,149.55126396007537ZM196.49030830078124,148.68056396007538Q196.51210830078125,148.66796396007538,196.53510830078125,148.65756396007538L261.8780083007813,119.24596396007539L263.21900830078124,118.63766396007537Q263.9310083007813,118.31816396007538,264.3400083007813,117.68496396007538Q264.72600830078125,117.08826396007538,264.7530083007813,116.36916396007538Q264.78100830078125,115.58866396007538,264.39200830078124,114.93046396007537Q263.9820083007812,114.23456396007538,263.21800830078126,113.88936396007537L195.33660830078125,83.33574396007538Q192.27220830078124,81.95806396007538,188.92150830078126,81.95806396007538Q185.57100830078124,81.95806396007538,182.51440830078127,83.33565396007538L114.63325830078125,113.88906396007538Q113.86911830078125,114.23456396007538,113.45859630078125,114.93046396007537Q113.07029630078125,115.58866396007538,113.09762130078126,116.36776396007538Q113.12520130078126,117.09516396007538,113.50554130078125,117.68836396007538Q113.91182830078125,118.32216396007539,114.63377830078124,118.63856396007537L115.97192830078124,119.24536396007538L181.79290830078125,148.8764639600754L182.51470830078125,149.19696396007538Q185.57100830078124,150.57446396007538,188.91950830078125,150.57446396007538Q192.26840830078123,150.57446396007538,195.33740830078125,149.1964639600754L196.49030830078124,148.68056396007538Z" fill-rule="evenodd" fill="#3D57DA" fill-opacity="1"/></g><g><path d="M112.09808349609375,123.48221708507538L112.09808349609375,123.13662708507538L112.09808349609375,116.39751708507538L113.09808349609375,116.39751708507538L113.09808349609375,123.13662708507538L113.09808349609375,123.48221708507538L112.09808349609375,123.48221708507538Z" fill-rule="evenodd" fill="#3D57DA" fill-opacity="1"/></g><g><path d="M264.74774169921875,123.48221708507538L264.74774169921875,123.13662708507538L264.74774169921875,116.39751708507538L265.74774169921875,116.39751708507538L265.74774169921875,123.13662708507538L265.74774169921875,123.48221708507538L264.74774169921875,123.48221708507538Z" fill-rule="evenodd" fill="#3D57DA" fill-opacity="1"/></g><g><path d="M181.08477783203125,156.13554458507537L181.08477783203125,149.3388525850754L181.08477783203125,149.10845458507538L182.08477783203125,149.10845458507538L182.08477783203125,149.3388525850754L182.08477783203125,156.13554458507537L181.08477783203125,156.13554458507537Z" fill-rule="evenodd" fill="#3D57DA" fill-opacity="1"/></g><g><path d="M196.23516845703125,156.13554458507537L196.23516845703125,155.9784645850754L196.23516845703125,149.11892138507537L196.23516845703125,149.10845458507538L197.23516845703125,149.10845458507538L197.23516845703125,149.11892138507537L197.23516845703125,155.9784645850754L197.23516845703125,156.13554458507537L196.23516845703125,156.13554458507537Z" fill-rule="evenodd" fill="#3D57DA" fill-opacity="1"/></g></g></g><g><g><path d="M227.7914662109375,104.89333607628632C228.0572662109375,104.98235207628632,228.1875562109375,105.19704207628632,228.1875562109375,105.42219807628632C228.1875562109375,105.66830407628632,228.0312062109375,105.93535307628632,227.7289262109375,106.08196307628631L220.5316162109375,109.61123307628631L220.5316162109375,107.55337307628632L225.5608662109375,105.08707607628632C226.2852962109375,104.73624597628631,227.0983162109375,104.66293827628631,227.7914662109375,104.89333607628632Z" fill="#121316" fill-opacity="1"/></g><g><path d="M220.5316420234375,109.61136901378632L220.5316420234375,110.56437701378631C220.5316420234375,110.30779601378632,220.3283790234375,110.07216501378632,219.9896240234375,109.87842501378631L220.5316420234375,109.61136901378632Z" fill="#DDDEE4" fill-opacity="1"/></g><g><path d="M220.53164578125,107.55326354503632L220.53164578125,109.61112354503632L219.98962578125,109.87816354503632C219.46845578125,109.58493354503632,218.61895578125,109.39643354503632,217.66000578125,109.39643354503632C217.28998478125,109.39643354503632,216.94079678125,109.42261354503631,216.61767578125,109.47497354503632L220.53164578125,107.55326354503632Z" fill="#DDDEE4" fill-opacity="1"/></g><g><path d="M220.5316291015625,104.05033385753632L220.5316291015625,107.55341385753631L216.6176591015625,109.47512385753632C215.7108371015625,109.61651385753632,215.0281101015625,109.94639385753632,214.8456989015625,110.34435385753632L214.7935791015625,110.37053385753632L214.7935791015625,104.05034184747632C214.7935791015625,104.69440285753632,216.0756491015625,105.21803385753631,217.6599991015625,105.21803385753631C219.2443491015625,105.21803385753631,220.5316291015625,104.69440285753632,220.5316291015625,104.05033385753632Z" fill="#DDDEE4" fill-opacity="1"/></g><g><path d="M219.9895696875,109.87821471691132C220.3283296875,110.07195471691132,220.5315896875,110.30759371691131,220.5315896875,110.56416671691132C220.5315896875,111.20822471691132,219.2443096875,111.73185471691131,217.6599596875,111.73185471691131C217.2221796875,111.73185471691131,216.8104536875,111.68996471691132,216.4404296875,111.62189471691131L219.9895696875,109.87821471691132Z" fill="#DDDEE4" fill-opacity="1"/></g><g><path d="M219.9896091015625,109.87826326378632L216.4404691015625,111.62194526378632C215.4658881015625,111.43344526378631,214.7935791015625,111.03024526378631,214.7935791015625,110.56421526378631C214.7935791015625,110.49090526378632,214.8092135015625,110.41236526378631,214.8456989015625,110.34429226378631L216.6176591015625,109.47506636378631C216.9407791015625,109.42270026378631,217.2899691015625,109.39652526378632,217.6599991015625,109.39652526378632C218.6189391015625,109.39652526378632,219.4684391015625,109.58503226378632,219.9896091015625,109.87826326378632Z" fill="#DDDEE4" fill-opacity="1"/></g><g><path d="M216.6175410546875,109.47513854503632L214.8455810546875,110.34436454503631C215.0279920546875,109.94640954503632,215.7107190546875,109.61652054503631,216.6175410546875,109.47513854503632Z" fill="#DDDEE4" fill-opacity="1"/></g><g><path d="M216.4404017578125,111.62187221691131L170.4162017578125,134.20600221691132C169.6917717578125,134.5568022169113,168.8735517578125,134.63010221691133,168.1803937578125,134.39970221691132C167.9145937578125,134.31070221691132,167.7843017578125,134.0960022169113,167.7843017578125,133.8709022169113C167.7843017578125,133.62470221691132,167.9406457578125,133.35770221691132,168.2429307578125,133.2111022169113L214.7935017578125,110.37040221691132L214.7935017578125,110.56414221691132C214.7935017578125,111.03017121691131,215.4658017578125,111.43337221691132,216.4404017578125,111.62187221691131Z" fill="#000000" fill-opacity="1"/></g><g><path d="M214.7935791015625,110.37070631066132L214.8456989015625,110.34452331066132C214.8092135015625,110.41259761066132,214.7935791015625,110.49113831066131,214.7935791015625,110.56444631066131L214.7935791015625,110.37070631066132Z" fill="#FFFFFF" fill-opacity="1"/></g><g><path d="M211.5778322265625,96.98128759191131C211.8436322265625,97.07030359191131,211.9739322265625,97.27976059191131,211.9739322265625,97.50491659191131C211.9739322265625,97.75102259191132,211.8176322265625,98.01807159191132,211.5153322265625,98.16468159191132L177.2955322265625,114.95751159191131L177.2955322265625,112.89961159191131L209.34723222656248,97.17503659191132C210.07173222656252,96.81897239191132,210.8847322265625,96.74565669191132,211.5778322265625,96.98128759191131Z" fill="#3D57DA" fill-opacity="1"/></g><g><path d="M194.9892166015625,88.61385595128631C195.2550166015625,88.70287195128631,195.3800966015625,88.91232895128631,195.3800966015625,89.13748495128631C195.3800966015625,89.38359095128632,195.2289466015625,89.65063995128632,194.9266866015625,89.79724995128632L186.3170166015625,94.02293995128632L186.3170166015625,91.96508995128632L192.7534266015625,88.80760495128632C193.4778566015625,88.45154075128632,194.2960766015625,88.37822505128632,194.9892166015625,88.61385595128631Z" fill="#000000" fill-opacity="1"/></g><g><path d="M183.893677734375,95.21123570128631L137.608857734375,117.92099870128632C136.884427734375,118.27709870128632,136.066217734375,118.34519870128631,135.373052734375,118.11479870128632C135.112469734375,118.02569870128632,134.982177734375,117.81629870128631,134.982177734375,117.59109870128631C134.982177734375,117.34499870128631,135.138521734375,117.07799870128632,135.435589734375,116.93139870128631L180.922977734375,94.61429870128632C181.407677734375,94.98083770128632,182.356177734375,95.22694370128632,183.445477734375,95.22694370128632C183.596577734375,95.22694370128632,183.747677734375,95.22694370128632,183.893677734375,95.21123570128631Z" fill="#000000" fill-opacity="1"/></g><g><path d="M177.29565115625,114.95731627941132L177.29565115625,115.71657627941131C177.29565115625,115.50712827941132,177.16014215625,115.30814627941132,176.92041015625,115.14058127941132L177.29565115625,114.95731627941132Z" fill="#FFFFFF" fill-opacity="1"/></g><g><path d="M173.49630078125,116.82145362316132L154.20270078125,126.28869362316132C153.47827078125,126.64469362316132,152.66005078125,126.71279362316132,151.96689278125,126.48239362316131C151.70109278125,126.39339362316132,151.57080078125,126.18389362316131,151.57080078125,125.95879362316131C151.57080078125,125.71266362316132,151.72714478125,125.44561362316132,152.02942978125,125.29900362316131L171.55750078124998,115.71659362316132C171.55750078124998,116.23498862316131,172.36530078125,116.66436062316131,173.49630078125,116.82145362316132Z" fill="#000000" fill-opacity="1"/></g><g><g><path d="M174.42397615234376,110.24476725597381C172.83962615234375,110.24476725597381,171.55755615234375,109.72113625597382,171.55755615234375,109.07707524591382L171.55755615234375,115.71668725597381C171.55755615234375,116.23507725597382,172.36535815234376,116.66444725597381,173.49629615234375,116.82153725597382C173.78814615234376,116.86343725597382,174.10085615234374,116.88437725597382,174.42397615234376,116.88437725597382C176.01352615234376,116.88437725597382,177.29560615234374,116.36597725597382,177.29560615234374,115.71668725597381C177.29560615234374,115.50723725597382,177.16009615234375,115.30825725597381,176.92036615234375,115.14068725597382L177.29560615234374,114.95741725597381L177.29560615234374,112.89955725597382L177.29560615234374,109.07706725597382C177.29560615234374,109.72112825597381,176.00832615234376,110.24475725597381,174.42397615234376,110.24476725597381ZM173.89238615234376,114.56994725597382C174.06436615234375,114.55423725597382,174.24157615234375,114.54899725597382,174.42397615234376,114.54899725597382C174.24155615234375,114.54899725597382,174.06436615234375,114.55423725597382,173.89238615234376,114.56994725597382Z" fill="#DDDEE4" fill-opacity="1"/></g><g><path d="M172.20570915234376,110.36531264659881Q173.13514615234374,110.74472264659882,174.42397615234376,110.74472264659882Q175.71500615234376,110.74472264659882,176.64393615234374,110.36765264659881Q177.79560615234374,109.90016264659882,177.79560615234374,109.07703264659881Q177.79560615234374,108.25411364659881,176.64177615234374,107.78633364659882Q175.71188615234374,107.40934264659882,174.42397615234376,107.40934264659882Q173.13632615234374,107.40934264659882,172.20837115234374,107.78649564659882Q171.05755615234375,108.25422364659882,171.05755615234375,109.07703264659881Q171.05755615234375,109.89663264659882,172.20570915234376,110.36531264659881ZM176.26781615234376,109.44107264659881Q175.51978615234376,109.74472264659882,174.42397615234376,109.74472264659882Q173.33139615234376,109.74472264659882,172.58364615234376,109.43948264659882Q172.27700215234375,109.31431264659882,172.12933215234375,109.17162264659882Q172.05755615234375,109.10227264659882,172.05755615234375,109.07703264659881Q172.05755615234375,109.05021264659882,172.12987515234374,108.98041264659882Q172.27765115234374,108.83777664659881,172.58489615234376,108.71290264659882Q173.33178615234374,108.40934264659882,174.42397615234376,108.40934264659882Q175.51688615234374,108.40934264659882,176.26606615234374,108.71307064659882Q176.57457615234375,108.83814464659882,176.72307615234374,108.98100264659881Q176.79560615234374,109.05077264659882,176.79560615234374,109.07703264659881Q176.79560615234374,109.10380264659882,176.72330615234375,109.17355264659882Q176.57541615234376,109.31621264659881,176.26781615234376,109.44107264659881Z" fill-rule="evenodd" fill="#3D57DA" fill-opacity="1"/></g></g><g><path d="M172.3466011171875,115.96799862316132Q172.0574951171875,115.80650352316131,172.0574951171875,115.71659362316132L171.0574951171875,115.71659362316132Q171.0574951171875,116.39334162316132,171.8589261171875,116.84102362316132Q172.4731731171875,117.18414362316132,173.4274451171875,117.31669362316131Q173.8982851171875,117.38428362316131,174.4239151171875,117.38428362316131Q175.7149451171875,117.38428362316131,176.6438751171875,117.00721362316132Q177.7955451171875,116.53972562316132,177.7955451171875,115.71659362316132L176.7955451171875,115.71659362316132Q176.7955451171875,115.74337192316132,176.7232451171875,115.81311722316131Q176.5753551171875,115.95577962316132,176.2677551171875,116.08064062316132Q175.5197251171875,116.38428362316131,174.4239151171875,116.38428362316131Q173.9696851171875,116.38428362316131,173.5650251171875,116.32620562316131Q172.7968351171875,116.21950162316132,172.3466011171875,115.96799862316132Z" fill-rule="evenodd" fill="#3D57DA" fill-opacity="1"/></g><g><path d="M176.7955322265625,115.71680932628631L176.7955322265625,114.95753932628631L176.7955322265625,112.89967932628632L176.7955322265625,109.07718932628632L177.7955322265625,109.07718932628632L177.7955322265625,112.89967932628632L177.7955322265625,114.95753932628631L177.7955322265625,115.71680932628631L176.7955322265625,115.71680932628631Z" fill-rule="evenodd" fill="#3D57DA" fill-opacity="1"/></g><g><path d="M171.0574951171875,115.71680932628631L171.0574951171875,114.95753932628631L171.0574951171875,112.89967932628632L171.0574951171875,109.07718932628632L172.0574951171875,109.07718932628632L172.0574951171875,112.89967932628632L172.0574951171875,114.95753932628631L172.0574951171875,115.71680932628631L171.0574951171875,115.71680932628631Z" fill-rule="evenodd" fill="#3D57DA" fill-opacity="1"/></g><g><g><path d="M186.31713553125,93.81351745128632L186.31713553125,94.57277745128631C186.31713553125,94.36332945128632,186.18162653125,94.16434745128632,185.94189453125,93.99678245128632L186.31713553125,93.81351745128632Z" fill="#FFFFFF" fill-opacity="1"/></g><g><g><path d="M183.4453994921875,89.10083635753631C181.8610494921875,89.10083635753631,180.5789794921875,88.57720735753631,180.5789794921875,87.93314635753632L180.5789794921875,94.57276635753631C180.5789794921875,95.09115635753632,181.3867814921875,95.52052635753631,182.5177194921875,95.67761635753632C182.8095694921875,95.71951635753632,183.1222794921875,95.74045635753632,183.4453994921875,95.74045635753632C185.0349494921875,95.74045635753632,186.3170294921875,95.22205635753632,186.3170294921875,94.57276635753631C186.3170294921875,94.36331635753632,186.1815194921875,94.16433635753631,185.9417894921875,93.99676635753632L186.3170294921875,93.81349635753631L186.3170294921875,91.75563635753632L186.3170294921875,87.93314635753632C186.3170294921875,88.57720735753631,185.0297494921875,89.10083635753631,183.4453994921875,89.10083635753631ZM182.9138094921875,93.42600635753632C183.0857894921875,93.41029635753631,183.2629994921875,93.40506635753631,183.4453994921875,93.40506635753631C183.2629794921875,93.40506635753631,183.0857894921875,93.41029635753631,182.9138094921875,93.42600635753632Z" fill="#DDDEE4" fill-opacity="1"/></g><g><path d="M181.2271324921875,89.22114760753631Q182.1565694921875,89.60055760753632,183.4453994921875,89.60055760753632Q184.7364294921875,89.60055760753632,185.6653594921875,89.22348760753631Q186.8170294921875,88.75599760753632,186.8170294921875,87.93286760753631Q186.8170294921875,87.10994860753631,185.6631994921875,86.64216860753632Q184.7333094921875,86.26517760753632,183.4453994921875,86.26517760753632Q182.1577494921875,86.26517760753632,181.2297944921875,86.64233060753632Q180.0789794921875,87.11005860753632,180.0789794921875,87.93286760753631Q180.0789794921875,88.75246760753632,181.2271324921875,89.22114760753631ZM185.2892394921875,88.29690760753631Q184.5412094921875,88.60055760753632,183.4453994921875,88.60055760753632Q182.3528194921875,88.60055760753632,181.6050694921875,88.29531760753632Q181.2984254921875,88.17014760753632,181.1507554921875,88.02745760753632Q181.0789794921875,87.95810760753632,181.0789794921875,87.93286760753631Q181.0789794921875,87.90604760753632,181.1512984921875,87.83624760753632Q181.2990744921875,87.69361160753631,181.6063194921875,87.56873760753632Q182.3532094921875,87.26517760753632,183.4453994921875,87.26517760753632Q184.5383094921875,87.26517760753632,185.2874894921875,87.56890560753632Q185.5959994921875,87.69397960753632,185.7444994921875,87.83683760753631Q185.8170294921875,87.90660760753632,185.8170294921875,87.93286760753631Q185.8170294921875,87.95963760753632,185.7447294921875,88.02938760753632Q185.5968394921875,88.17204760753631,185.2892394921875,88.29690760753631Z" fill-rule="evenodd" fill="#3D57DA" fill-opacity="1"/></g></g><g><path d="M181.3680854921875,94.82419979503632Q181.0789794921875,94.66270469503631,181.0789794921875,94.57279479503632L180.0789794921875,94.57279479503632Q180.0789794921875,95.24954279503632,180.8804104921875,95.69722479503632Q181.4946574921875,96.04034479503632,182.4489294921875,96.17289479503631Q182.9197694921875,96.24048479503631,183.4453994921875,96.24048479503631Q184.7364294921875,96.24048479503631,185.6653594921875,95.86341479503632Q186.8170294921875,95.39592679503632,186.8170294921875,94.57279479503632L185.8170294921875,94.57279479503632Q185.8170294921875,94.59957309503632,185.7447294921875,94.66931839503631Q185.5968394921875,94.81198079503632,185.2892394921875,94.93684179503632Q184.5412094921875,95.24048479503631,183.4453994921875,95.24048479503631Q182.9911694921875,95.24048479503631,182.5865094921875,95.18240679503631Q181.8183194921875,95.07570279503632,181.3680854921875,94.82419979503632Z" fill-rule="evenodd" fill="#3D57DA" fill-opacity="1"/></g><g><path d="M185.8170166015625,94.57276635753631L185.8170166015625,93.81349635753631L185.8170166015625,91.75563635753632L185.8170166015625,87.93314635753632L186.8170166015625,87.93314635753632L186.8170166015625,91.75563635753632L186.8170166015625,93.81349635753631L186.8170166015625,94.57276635753631L185.8170166015625,94.57276635753631Z" fill-rule="evenodd" fill="#3D57DA" fill-opacity="1"/></g><g><path d="M180.0789794921875,94.57276635753631L180.0789794921875,93.81349635753631L180.0789794921875,91.75563635753632L180.0789794921875,87.93314635753632L181.0789794921875,87.93314635753632L181.0789794921875,91.75563635753632L181.0789794921875,93.81349635753631L181.0789794921875,94.57276635753631L180.0789794921875,94.57276635753631Z" fill-rule="evenodd" fill="#3D57DA" fill-opacity="1"/></g></g><g><path d="M215.4438921015625,105.33842510753631Q216.3742991015625,105.71774510753632,217.6599991015625,105.71774510753632Q218.9459591015625,105.71774510753632,219.8782991015625,105.33858510753632Q221.0316291015625,104.86956510753632,221.0316291015625,104.05005510753631Q221.0316291015625,103.23055010753632,219.8782991015625,102.76152210753632Q218.9459591015625,102.38236510753632,217.6599991015625,102.38236510753632Q216.3742991015625,102.38236510753632,215.4438921015625,102.76168810753632Q214.2935791015625,103.23066610753632,214.2935791015625,104.05005510753631Q214.2935791015625,104.86944510753632,215.4438921015625,105.33842510753631ZM219.5015891015625,104.41225510753631Q218.7503991015625,104.71774510753632,217.6599991015625,104.71774510753632Q216.5703091015625,104.71774510753632,215.8214191015625,104.41242510753632Q215.5138681015625,104.28703510753631,215.3655821015625,104.14415510753632Q215.2935791015625,104.07478510753631,215.2935791015625,104.05005510753631Q215.2935791015625,104.02532510753632,215.3655821015625,103.95595510753631Q215.5138681015625,103.81307410753631,215.8214191015625,103.68768710753632Q216.5703091015625,103.38236510753632,217.6599991015625,103.38236510753632Q218.7503991015625,103.38236510753632,219.5015891015625,103.68785210753632Q219.8103991015625,103.81344010753632,219.9594191015625,103.95653510753631Q220.0316291015625,104.02587510753632,220.0316291015625,104.05005510753631Q220.0316291015625,104.07423510753631,219.9594191015625,104.14357510753632Q219.8103991015625,104.28667510753631,219.5015891015625,104.41225510753631Z" fill-rule="evenodd" fill="#3D57DA" fill-opacity="1"/></g><g><path d="M215.5180531015625,110.77412787316132Q215.2935791015625,110.63272497316132,215.2935791015625,110.56424987316132L214.2935791015625,110.56424987316132Q214.2935791015625,111.18466387316131,214.9850591015625,111.62024987316131Q215.5108091015625,111.95142987316132,216.3455191015625,112.11287987316132Q216.9925791015625,112.23194987316131,217.6599991015625,112.23194987316131Q218.9459591015625,112.23194987316131,219.8782991015625,111.85278987316131Q221.0316291015625,111.38376387316131,221.0316291015625,110.56425809860131L220.0316291015625,110.56425809860131Q220.0316291015625,110.58843607316132,219.9594191015625,110.65777957316132Q219.8103991015625,110.80087287316131,219.5015891015625,110.92646087316132Q218.7503991015625,111.23194787316132,217.6599991015625,111.23194787316132Q217.0838091015625,111.23194787316132,216.5354191015625,111.13108087316131Q215.8849891015625,111.00527287316132,215.5180531015625,110.77412787316132Z" fill-rule="evenodd" fill="#3D57DA" fill-opacity="1"/></g><g><path d="M214.2935791015625,110.56427385753632L214.2935791015625,110.37052385753631L214.2935791015625,104.05033385753632L215.2935791015625,104.05033385753632L215.2935791015625,110.37052385753631L215.2935791015625,110.56427385753632L214.2935791015625,110.56427385753632Z" fill-rule="evenodd" fill="#3D57DA" fill-opacity="1"/></g><g><path d="M220.0316162109375,110.56427385753632L220.0316162109375,109.61126385753631L220.0316162109375,107.55340385753631L220.0316162109375,104.05033385753632L221.0316162109375,104.05033385753632L221.0316162109375,107.55340385753631L221.0316162109375,109.61126385753631L221.0316162109375,110.56427385753632L220.0316162109375,110.56427385753632Z" fill-rule="evenodd" fill="#3D57DA" fill-opacity="1"/></g><g><path d="M216.4404017578125,111.62187221691131L170.4162017578125,134.20600221691132C169.6917717578125,134.5568022169113,168.8735517578125,134.63010221691133,168.1803937578125,134.39970221691132C167.9145937578125,134.31070221691132,167.7843017578125,134.0960022169113,167.7843017578125,133.8709022169113C167.7843017578125,133.62470221691132,167.9406457578125,133.35770221691132,168.2429307578125,133.2111022169113L214.7935017578125,110.37040221691132" fill="#3D57DA" fill-opacity="1"/></g><g><path d="M220.5316162109375,107.55337307628632L225.5608662109375,105.08707607628632C226.2852962109375,104.73624597628631,227.0983162109375,104.66293827628631,227.7914662109375,104.89333607628632C228.0572662109375,104.98235207628632,228.1875562109375,105.19704207628632,228.1875562109375,105.42219807628632C228.1875562109375,105.66830407628632,228.0312062109375,105.93535307628632,227.7289262109375,106.08196307628631L220.5316162109375,109.61123307628631" fill="#3D57DA" fill-opacity="1"/></g><g><path d="M173.49630078125,116.82145362316132L154.20270078125,126.28869362316132C153.47827078125,126.64469362316132,152.66005078125,126.71279362316132,151.96689278125,126.48239362316131C151.70109278125,126.39339362316132,151.57080078125,126.18389362316131,151.57080078125,125.95879362316131C151.57080078125,125.71266362316132,151.72714478125,125.44561362316132,152.02942978125,125.29900362316131L171.55750078124998,115.71659362316132" fill="#3D57DA" fill-opacity="1"/></g><g></g><g><path d="M183.893677734375,95.21123570128631L137.608857734375,117.92099870128632C136.884427734375,118.27709870128632,136.066217734375,118.34519870128631,135.373052734375,118.11479870128632C135.112469734375,118.02569870128632,134.982177734375,117.81629870128631,134.982177734375,117.59109870128631C134.982177734375,117.34499870128631,135.138521734375,117.07799870128632,135.435589734375,116.93139870128631L180.922977734375,94.61429870128632" fill="#3D57DA" fill-opacity="1"/></g><g><path d="M186.3170166015625,91.96508995128632L192.7534266015625,88.80760495128632C193.4778566015625,88.45154075128632,194.2960766015625,88.37822505128632,194.9892366015625,88.61386395128632C195.2550366015625,88.70287995128632,195.3801066015625,88.91233695128632,195.3801066015625,89.13749295128632C195.3801066015625,89.38359895128632,195.2289666015625,89.65064995128631,194.9266966015625,89.79725995128632L186.3170325062625,94.02293995128632" fill="#3D57DA" fill-opacity="1"/></g></g><g><path d="M218.32896601562499,125.51064762023162Q217.993566015625,125.00166662023163,217.411566015625,124.77125762023162L217.411366015625,124.77119662023163Q215.800266015625,124.13292162023163,214.07046601562502,124.17333862023163Q212.339966015625,124.21377162023163,210.762366015625,124.92705462023163L184.080373015625,136.98021562023163Q183.507986315625,137.23611562023163,183.196139015625,137.76001562023163Q182.907112015625,138.24571562023164,182.920731015625,138.82171562023163Q182.934337015625,139.39711562023163,183.245421015625,139.86931562023162Q183.580840015625,140.37831562023163,184.162799015625,140.60871562023164Q185.773976015625,141.24701562023162,187.503896015625,141.20661562023162Q189.234416015625,141.16611562023164,190.812026015625,140.45291562023164L217.493966015625,128.39974562023164Q218.066366015625,128.14385562023162,218.378166015625,127.61988562023163Q218.667266015625,127.13425562023163,218.65356601562502,126.55823562023163Q218.639966015625,125.98276562023163,218.32896601562499,125.51064762023162ZM214.093766015625,125.17306562023163Q215.620766015625,125.13738862023163,217.043166015625,125.70095562023162L217.043366015625,125.70101562023163Q217.638666015625,125.93662562023162,217.653866015625,126.58187562023163Q217.669166015625,127.22606562023162,217.08586601562502,127.48681562023162L190.400346015625,139.54151562023162Q189.007736015625,140.17121562023164,187.480536015625,140.20681562023162Q185.953576015625,140.24251562023164,184.531136015625,139.67901562023164Q183.935707015625,139.44331562023163,183.920452015625,138.79801562023164Q183.905221015625,138.15381562023163,184.488486015625,137.89311562023164L211.173966015625,125.83838562023163Q212.566566015625,125.20874862023163,214.093766015625,125.17306562023163Z" fill-rule="evenodd" fill="#3D57DA" fill-opacity="1"/></g><g><g><path d="M245.3078482421875,115.47065753917694C245.4225482421875,115.71153753917694,245.4850482421875,115.95239753917694,245.4850482421875,116.20897753917694C245.4850482421875,118.03644753917695,242.3580482421875,119.51307753917695,238.4910082421875,119.51307753917695C234.6239482421875,119.51307753917695,231.4969482421875,118.03120753917695,231.4969482421875,116.20897753917694C231.4969482421875,115.29785753917695,232.2786982421875,114.46529453917694,233.5399282421875,113.86835753917694L233.5399282421875,116.05188753917695C233.5399282421875,117.37666753917694,236.1718082421875,118.44487753917694,239.4186882421875,118.44487753917694C242.6655482421875,118.44487753917694,245.2974482421875,117.37143753917694,245.2974482421875,116.05188753917695L245.2974482421875,115.47065753917694L245.3078482421875,115.47065753917694Z" fill="#3D57DA" fill-opacity="1"/></g><g><path d="M242.9992372734375,109.24994933605194C243.4213852734375,109.24994933605194,243.7653552734375,109.44368933605195,243.7653552734375,109.68456233605194C243.7653552734375,109.92543533605195,243.4213852734375,110.11917533605194,242.9992372734375,110.11917533605194C242.5770942734375,110.11917533605194,242.2279052734375,109.92543533605195,242.2279052734375,109.68456233605194C242.2279052734375,109.44368933605195,242.5718772734375,109.24994933605194,242.9992372734375,109.24994933605194Z" fill="#3D57DA" fill-opacity="1"/></g><g><ellipse cx="239.42917346954346" cy="110.15074527263641" rx="5.878758430480957" ry="2.3929834365844727" fill-opacity="0" stroke-opacity="1" stroke="#3D57DA" fill="none" stroke-width="1" stroke-linejoin="round"/></g><g><path d="M235.4608250390625,117.28021128917695Q234.0504150390625,116.70574528917695,234.0504150390625,116.05195128917694L233.0504150390625,116.05195128917694Q233.0504150390625,117.37821128917695,235.0836050390625,118.20634128917695Q236.8969950390625,118.94494128917694,239.4291750390625,118.94494128917694Q241.9634350390625,118.94494128917694,243.7745150390625,118.20840128917695Q245.8079150390625,117.38142128917694,245.8079150390625,116.05195128917694L244.8079150390625,116.05195128917694Q244.8079150390625,116.70857528917693,243.3977650390625,117.28207128917694Q241.76786503906249,117.94494128917694,239.4291750390625,117.94494128917694Q237.0928350390625,117.94494128917694,235.4608250390625,117.28021128917695Z" fill-rule="evenodd" fill="#3D57DA" fill-opacity="1"/></g><g><path d="M233.0504150390625,116.05212824230195L233.0504150390625,113.86859824230194L233.0504150390625,113.72721824230194L233.0504150390625,110.15082824230194L234.0504150390625,110.15082824230194L234.0504150390625,113.72721824230194L234.0504150390625,113.86859824230194L234.0504150390625,116.05212824230195L233.0504150390625,116.05212824230195Z" fill-rule="evenodd" fill="#3D57DA" fill-opacity="1"/></g><g><path d="M244.807861328125,116.05212824230195L244.807861328125,115.47089824230194L244.807861328125,114.00996824230194L244.807861328125,110.15082824230194L245.807861328125,110.15082824230194L245.807861328125,114.00996824230194L245.807861328125,115.47089824230194L245.807861328125,116.05212824230195L244.807861328125,116.05212824230195Z" fill-rule="evenodd" fill="#3D57DA" fill-opacity="1"/></g><g><path d="M231.1960986328125,115.62105707042694Q232.0975686328125,114.78112707042695,233.7183086328125,114.20306907042693L233.3823686328125,113.26118507042695Q231.5670386328125,113.90865007042694,230.5144116328125,114.88941707042694Q229.3448486328125,115.97913707042694,229.3448486328125,117.26138707042693Q229.3448486328125,119.39976707042695,232.3310086328125,120.82556707042694Q235.1365186328125,122.16510707042694,239.0747086328125,122.16510707042694Q243.0129486328125,122.16510707042694,245.8183486328125,120.82556707042694Q248.8045486328125,119.39976707042695,248.8045486328125,117.26138707042693Q248.8045486328125,116.11457707042695,247.8600486328125,115.11200707042694Q247.0101486328125,114.20986807042694,245.5085486328125,113.55170907042694L245.1071486328125,114.46759007042694Q246.4220486328125,115.04393707042694,247.1321486328125,115.79772707042694Q247.8045486328125,116.51143707042694,247.8045486328125,117.26138707042693Q247.8045486328125,118.76909707042694,245.3875486328125,119.92315707042694Q242.7864486328125,121.16510707042694,239.0747086328125,121.16510707042694Q235.3629986328125,121.16510707042694,232.7618886328125,119.92315707042694Q230.3448486328125,118.76909707042694,230.3448486328125,117.26138707042693Q230.3448486328125,116.41419707042694,231.1960986328125,115.62105707042694Z" fill-rule="evenodd" fill="#3D57DA" fill-opacity="1"/></g></g><g><path d="M241.786083984375,88.27163437023162L224.884083984375,95.73343437023163L225.28808398437502,96.64823437023162L242.190083984375,89.18653437023163Q243.228083984375,88.72543437023162,243.791083984375,87.77063437023162Q244.312083984375,86.88583437023163,244.285083984375,85.83253437023163Q244.258083984375,84.77863437023163,243.693083984375,83.92323437023163Q243.084083984375,83.00303437023163,242.028083984375,82.59913437023164L158.92228398437499,47.68344637023163L158.913983984375,47.68029937023163Q155.670283984375,46.45107537023163,152.214483984375,46.56749937023163Q148.759883984375,46.68388437023163,145.603883984375,48.127794370231626L108.532094984375,64.69353437023163L108.940072984375,65.60653437023163L146.01988398437499,49.03714437023163Q148.993783984375,47.676572370231625,152.248183984375,47.566932370231626Q155.499083984375,47.45741037023163,158.551383984375,48.61229437023163L241.656083984375,83.52773437023163L241.664083984375,83.53083437023163Q242.425083984375,83.81983437023163,242.859083984375,84.47493437023164Q243.266083984375,85.09093437023162,243.285083984375,85.85783437023163Q243.305083984375,86.62493437023163,242.929083984375,87.26313437023163Q242.529083984375,87.94163437023163,241.786083984375,88.27163437023162Z" fill-rule="evenodd" fill="#3D57DA" fill-opacity="1"/></g><g><g><ellipse cx="127.49298000335693" cy="153.7111850976944" rx="8.057234764099121" ry="2.4558188915252686" fill="#3D57DA" fill-opacity="1"/></g><g><ellipse cx="130.9533715248108" cy="148.8940910100937" rx="6.8220696449279785" ry="6.8543009757995605" fill="#DDDEE4" fill-opacity="1"/><ellipse cx="130.9533715248108" cy="148.8940910100937" rx="6.8220696449279785" ry="6.8543009757995605" fill-opacity="0" stroke-opacity="1" stroke="#3D57DA" fill="none" stroke-width="1" stroke-linejoin="round"/></g></g><g><g><ellipse cx="128.12369537353516" cy="56.855640053749084" rx="10.282615661621094" ry="3.1365363597869873" fill="#3D57DA" fill-opacity="1"/></g><g><ellipse cx="132.5327205657959" cy="50.70833384990692" rx="8.703481674194336" ry="8.744601249694824" fill="#DDDEE4" fill-opacity="1"/><ellipse cx="132.5327205657959" cy="50.70833384990692" rx="8.703481674194336" ry="8.744601249694824" fill-opacity="0" stroke-opacity="1" stroke="#3D57DA" fill="none" stroke-width="1" stroke-linejoin="round"/></g></g><g><g><path d="M55.45736130981445,52.818682807731626L38.84781130981445,60.29608280773163L32.734526309814456,57.54181280773163C32.11954930981445,57.26429280773163,31.812061309814453,56.68830280773163,31.812061309814453,56.11230280773163C31.812061309814453,55.536312807731626,32.11954930981445,54.96032280773163,32.734526309814456,54.68279280773163L46.17016130981445,48.63488280773163L55.462561309814454,52.81867280773163L55.45736130981445,52.818682807731626Z" fill="#3D57DA" fill-opacity="1"/></g><g><path d="M40.38000228637695,74.55422249523163L32.729277286376956,77.99970249523163C32.11430028637695,78.27722249523163,31.806812286376953,78.85321249523163,31.806812286376953,79.42920249523164L31.806812286376953,70.70031249523163L40.37479228637695,74.55422249523163L40.38000228637695,74.55422249523163Z" fill="#3D57DA" fill-opacity="1"/></g><g><path d="M32.72931330981445,65.90398241710663L46.16496130981445,71.95190241710662L40.38004130981445,74.55438241710662L31.812061309814453,70.70043241710663L31.812061309814453,64.47448241710663C31.812061309814453,65.05047341710663,32.11954930981445,65.62646241710662,32.734526309814456,65.90399241710662L32.72931330981445,65.90398241710663Z" fill="#3D57DA" fill-opacity="1"/></g><g><path d="M32.729275286376954,19.26947093273163L46.16491228637695,25.31738093273163L32.729277286376956,31.36526093273163C32.11430028637695,31.64286093273163,31.806812286376953,32.21876093273163,31.806812286376953,32.79476093273163L31.806812286376953,17.83996093273163C31.806812286376953,18.415951932731627,32.11430028637695,18.99194093273163,32.729275286376954,19.26947093273163Z" fill="#3D57DA" fill-opacity="1"/></g><g><path d="M39.97349228637695,45.84874999523163L46.16491228637695,48.63445999523163L32.729277286376956,54.682369995231625C32.11430028637695,54.95988999523163,31.806812286376953,55.535879995231625,31.806812286376953,56.11184999523163L31.806812286376953,49.52462999523163L39.97349228637695,45.84874999523163Z" fill="#3D57DA" fill-opacity="1"/></g><g><path d="M39.97349228637695,45.84906374523163L31.806812286376953,49.52493374523163L31.806812286376953,41.15734374523163C31.806812286376953,41.73333474523163,32.11430028637695,42.30932374523163,32.729277286376956,42.58685374523163L39.97349228637695,45.84906374523163Z" fill="#3D57DA" fill-opacity="1"/></g><g><path d="M31.306812286376953,79.57598241710663L31.306812286376953,79.42928241710663L31.306812286376953,70.70043241710663L31.306812286376953,64.47448241710663L32.30681228637695,64.47448241710663L32.30681228637695,70.70043241710663L32.30681228637695,79.42928241710663L32.30681228637695,79.57598241710663L31.306812286376953,79.57598241710663Z" fill-rule="evenodd" fill="#3D57DA" fill-opacity="1"/></g><g><path d="M108.39250564575195,79.57598241710663L108.39250564575195,79.42928241710663L108.39250564575195,72.08281241710662L108.39250564575195,69.53797241710663L108.39250564575195,64.47448241710663L109.39250564575195,64.47448241710663L109.39250564575195,69.53797241710663L109.39250564575195,72.08281241710662L109.39250564575195,79.42928241710663L109.39250564575195,79.57598241710663L108.39250564575195,79.57598241710663Z" fill-rule="evenodd" fill="#3D57DA" fill-opacity="1"/></g><g><path d="M31.306812286376953,56.25884374523163L31.306812286376953,56.11214374523163L31.306812286376953,49.52493374523163L31.306812286376953,41.15734374523163L32.30681228637695,41.15734374523163L32.30681228637695,49.52493374523163L32.30681228637695,56.11214374523163L32.30681228637695,56.25884374523163L31.306812286376953,56.25884374523163Z" fill-rule="evenodd" fill="#3D57DA" fill-opacity="1"/></g><g><path d="M31.306812286376953,32.94146093273163L31.306812286376953,32.79476093273163L31.306812286376953,17.83996093273163L32.30681228637695,17.83996093273163L32.30681228637695,32.79476093273163L32.30681228637695,32.94146093273163L31.306812286376953,32.94146093273163Z" fill-rule="evenodd" fill="#3D57DA" fill-opacity="1"/></g><g><path d="M108.39250564575195,32.94146093273163L108.39250564575195,32.79476093273163L108.39250564575195,17.83996093273163L109.39250564575195,17.83996093273163L109.39250564575195,32.79476093273163L109.39250564575195,32.94146093273163L108.39250564575195,32.94146093273163Z" fill-rule="evenodd" fill="#3D57DA" fill-opacity="1"/></g><g><path d="M108.39250564575195,56.18560155773163L108.39250564575195,56.03890155773163L108.39250564575195,41.08410155773163L109.39250564575195,41.08410155773163L109.39250564575195,56.03890155773163L109.39250564575195,56.18560155773163L108.39250564575195,56.18560155773163Z" fill-rule="evenodd" fill="#3D57DA" fill-opacity="1"/></g><g><path d="M74.29741287231445,47.88585937023163L75.95472287231445,48.63464837023163L74.29741287231445,49.37820937023163L74.29741287231445,47.88585937023163Z" fill="#3D57DA" fill-opacity="1"/></g><g><path d="M74.29749810668946,81.06310546398163L74.29749810668946,89.82341546398163L66.64677810668945,86.37793546398163L66.64677810668945,81.17306346398163L67.01159710668945,81.33538646398164C69.13795810668945,82.29362546398163,71.56659810668945,82.29362546398163,73.69294810668946,81.33538646398164L74.29749810668946,81.06310546398163Z" fill="#DDDEE4" fill-opacity="1"/></g><g><path d="M66.64677595825195,62.73095294835663L67.01157595825195,62.568628948356626C69.13787595825195,61.615624948356626,71.56657595825195,61.615624948356626,73.69287595825196,62.568628948356626L74.29747595825195,62.84091394835663L74.29747595825195,72.70087694835662L73.69287595825196,72.97317694835662C71.57177595825195,73.92617694835663,69.13787595825195,73.92617694835663,67.01157595825195,72.97317694835662L55.45207595825195,67.77349694835662L66.64147595825196,62.73618194835663L66.64677595825195,62.73095294835663Z" fill="#DDDEE4" fill-opacity="1"/></g><g><path d="M74.29750810668945,57.74583310835663L74.29750810668945,62.840735698356625L73.69294810668946,62.56845569835663C71.57179810668946,61.61544569835663,69.13795810668945,61.61544569835663,67.01159310668945,62.56845569835663L66.64677810668945,62.73077569835663L66.64677810668945,57.85055769835663L67.01159310668945,58.012880698356625C69.13795810668945,58.96588569835663,71.56658810668945,58.96588569835663,73.69294810668946,58.012880698356625L74.29750810668945,57.74059569835663L74.29750810668945,57.74583310835663Z" fill="#DDDEE4" fill-opacity="1"/></g><g><path d="M66.64677810668945,47.78102252648163L67.01159710668945,47.61869852648163C69.13795810668945,46.66045752648163,71.56659810668945,46.66045752648163,73.69294810668946,47.61869852648163L74.29749810668946,47.89098352648163L74.29749810668946,49.38332952648163L73.69294810668946,49.655609526481626C71.57179810668946,50.61384952648163,69.13794810668945,50.61384952648163,67.01158910668946,49.655609526481626L66.69367720668946,48.85445952648163L66.64677810668945,47.78102252648163Z" fill="#DDDEE4" fill-opacity="1"/></g><g><path d="M74.29750810668945,39.52328699523163L74.29750810668945,47.89087999523163L73.69294810668946,47.61858999523163C71.57179810668946,46.66034999523163,69.13795810668945,46.66034999523163,67.01159310668945,47.61858999523163L66.64677810668945,47.78091999523163L66.64677810668945,39.41332599523163L67.01159310668945,39.251001995231626C69.13795810668945,38.297997995231626,71.56658810668945,38.297997995231626,73.69294810668946,39.251001995231626L74.29750810668945,39.52328699523163Z" fill="#DDDEE4" fill-opacity="1"/></g><g><path d="M74.29750810668945,34.42869443648163L74.29750810668945,39.523597026481625L73.69294810668946,39.25131702648163C71.57179810668946,38.29830702648163,69.13795810668945,38.29830702648163,67.01159310668945,39.25131702648163L66.64677810668945,39.41363702648163L66.64677810668945,34.53341902648163L67.01159310668945,34.695742026481625C69.13795810668945,35.64874702648163,71.56658810668945,35.64874702648163,73.69294810668946,34.695742026481625L74.29750810668945,34.42345702648163L74.29750810668945,34.42869443648163Z" fill="#DDDEE4" fill-opacity="1"/></g><g><path d="M66.64686130981445,86.37784843273162L66.64686130981445,81.17301843273162L46.17016130981445,71.95714843273163L40.38525130981445,74.55958843273163L32.734526309814456,78.00505843273163C32.11954930981445,78.28258843273163,31.812061309814453,78.85333843273163,31.812061309814453,79.43456843273162C31.812061309814453,80.01579843273163,32.11954930981445,80.58654843273163,32.734526309814456,80.86406843273163L67.01686130981446,96.29544843273163C69.14326130981445,97.24844843273164,71.57186130981445,97.24844843273164,73.69826130981446,96.29544843273163L74.30276130981446,96.02314843273163L74.30276130981446,89.82854843273162L66.65206130981446,86.38314843273163L66.64686130981445,86.37784843273162Z" fill="#DDDEE4" fill-opacity="1"/></g><g><path d="M61.04935681762696,70.29197655773163L38.84245681762695,60.29589655773163L55.457256817626956,52.81847655773163L64.87475681762695,57.05462655773163" fill="#3D57DA" fill-opacity="1"/></g><g><path d="M66.64684705200196,39.41344726085663L66.64684705200196,49.21054726085663L64.74984705200195,48.63454726085663L55.45744705200195,44.450757260856626L66.64684705200196,39.41344726085663Z" fill="#3D57DA" fill-opacity="1"/></g><g><path d="M66.64681873168945,34.53869132335663L66.64681873168945,39.41367132335663L55.45737873168945,44.45096132335663L49.26591873168945,41.66528132335663L65.87551873168945,34.18786132335663L66.64681873168945,34.53869132335663Z" fill="#3D57DA" fill-opacity="1"/></g><g><path d="M65.87535681762695,34.18757374523163L49.26575681762695,41.66499374523163L38.84245681762695,36.97327374523163L55.45205681762695,29.50109374523163L65.87535681762695,34.18757374523163Z" fill="#3D57DA" fill-opacity="1"/></g><g><path d="M46.16491228637695,25.31736431148163L55.45211228637695,29.501158901481627L38.84256228637695,36.97332890148163L32.729277286376956,34.21904890148163C32.11430028637695,33.94152890148163,31.806812286376953,33.36553890148163,31.806812286376953,32.78954890148163C31.806812286376953,32.213558901481626,32.11430028637695,31.63755890148163,32.729277286376956,31.36003890148163L46.16491228637695,25.31212890148163L46.16491228637695,25.31736431148163Z" fill="#3D57DA" fill-opacity="1"/></g><g><path d="M32.92969326293945,80.40307740148162Q32.30156326293945,80.11961940148163,32.30156326293945,79.42931640148163L31.301563262939453,79.42931640148163Q31.301563262939453,80.02107240148163,31.605952262939454,80.51739640148163Q31.932783262939452,81.05030640148163,32.51836326293945,81.31456640148163L66.80116326293945,96.74611640148163Q68.49416326293945,97.50491640148164,70.34896326293946,97.50491640148164Q72.20406326293946,97.50491640148164,73.89266326293945,96.74621640148163L74.49756326293945,96.47371640148162L81.38216326293946,93.37391640148162L108.17526326293945,81.31476640148163Q108.76126326293945,81.05030640148163,109.08816326293946,80.51739640148163Q109.39256326293945,80.02108540148163,109.39256326293945,79.42931640148163L108.39256326293945,79.42931640148163Q108.39256326293945,80.11961740148163,107.76486326293946,80.40287440148163L80.97166326293944,92.46211640148162L74.08696326293946,95.56201640148163L73.48276326293944,95.83411640148162Q71.98966326293944,96.50491640148164,70.34896326293946,96.50491640148164Q68.70806326293945,96.50491640148164,67.21156326293945,95.83421640148163L32.92969326293945,80.40307740148162Z" fill-rule="evenodd" fill="#3D57DA" fill-opacity="1"/></g><g><path d="M32.934662286376955,63.51140562023163L39.047952286376955,60.757117620231625L38.63717228637695,59.84538062023163L32.523889286376956,62.599665620231626Q31.938030286376954,62.864055620231625,31.611201286376954,63.396965620231626Q31.306812286376953,63.89328562023163,31.306812286376953,64.48504562023163Q31.306812286376953,65.07747562023162,31.610898286376955,65.57459562023163Q31.939411286376952,66.11165562023163,32.52685228637695,66.37174562023162L45.959712286376956,72.41841562023163L66.43641228637696,81.63431562023163L66.80311228637694,81.79751562023162Q68.49371228637696,82.55931562023163,70.34901228637696,82.55931562023163Q72.20461228637694,82.55931562023163,73.89361228637695,81.79631562023162L74.49761228637695,81.52421562023163L94.73961228637695,72.41321562023163L108.17531228637695,66.36525562023162Q108.76131228637695,66.10079562023162,109.08811228637695,65.56788562023164Q109.39251228637696,65.07157562023163,109.39251228637696,64.47981562023163Q109.39251228637696,63.887385620231626,109.08841228637695,63.39026562023163Q108.75991228637696,62.85320562023163,108.17251228637696,62.59311562023163L102.06221228637695,59.840147620231626L101.65141228637695,60.75188362023163L107.76761228637696,63.50749562023163Q108.39251228637696,63.78417562023163,108.39251228637696,64.47981562023163Q108.39251228637696,65.17011562023163,107.76481228637695,65.45338562023163L94.32921228637696,71.50131562023162L74.08701228637696,80.61251562023163L73.48191228637695,80.88501562023163Q71.98921228637695,81.55931562023163,70.34901228637696,81.55931562023163Q68.70861228637696,81.55931562023163,67.20971228637696,80.88381562023163L66.84681228637695,80.72241562023163L46.370212286376955,71.50651562023162L32.931702286376954,65.45736562023163Q32.30681228637695,65.18068562023163,32.30681228637695,64.48504562023163Q32.30681228637695,63.79474562023163,32.934662286376955,63.51140562023163Z" fill-rule="evenodd" fill="#3D57DA" fill-opacity="1"/></g><g><path d="M66.14677810668945,96.09659765148163L66.14677810668945,86.37804765148162L66.14677810668945,81.17317195148163L66.14677810668945,81.10509765148163L67.14677810668945,81.10509765148163L67.14677810668945,81.17317195148163L67.14677810668945,86.37804765148162L67.14677810668945,96.09659765148163L66.14677810668945,96.09659765148163Z" fill-rule="evenodd" fill="#3D57DA" fill-opacity="1"/></g><g><path d="M73.79741287231445,96.09650546398163L73.79741287231445,96.01790546398163L73.79741287231445,89.82341546398163L73.79741287231445,81.06310546398163L74.79741287231445,81.06310546398163L74.79741287231445,89.82341546398163L74.79741287231445,96.01790546398163L74.79741287231445,96.09650546398163L73.79741287231445,96.09650546398163Z" fill-rule="evenodd" fill="#3D57DA" fill-opacity="1"/></g><g><path d="M32.92969326293945,57.08619487023163Q32.30156326293945,56.80273587023163,32.30156326293945,56.11242986017163L31.301563262939453,56.11242986017163Q31.301563262939453,56.70419087023163,31.605952262939454,57.20051187023163Q31.932782262939455,57.73342187023163,32.51836326293945,57.99768187023163L38.63192326293945,60.75209187023163L55.241663262939454,68.22962187023163L66.80126326293944,73.42922187023163Q68.49416326293945,74.18802187023164,70.34896326293946,74.18802187023164Q72.20396326293945,74.18802187023164,73.89266326293945,73.42932187023163L74.49756326293945,73.15692187023163L85.45226326293945,68.22962187023163L102.06206326293945,60.752141870231625L108.17546326293946,57.997801870231626Q108.76126326293945,57.73341187023163,109.08816326293946,57.200501870231626Q109.39256326293945,56.70417287023163,109.39256326293945,56.11242187023163L108.39256326293945,56.11242187023163Q108.39256326293945,56.802725870231626,107.76466326293945,57.08606187023163L101.65146326293946,59.84029187023163L85.04206326293945,67.31762187023163L74.08696326293946,72.24512187023163L73.48276326293944,72.51722187023162Q71.98966326293944,73.18802187023164,70.34896326293946,73.18802187023164Q68.70806326293945,73.18802187023164,67.21146326293945,72.51732187023163L55.65216326293945,67.31772187023162L39.042703262939455,59.840361870231625L32.92969326293945,57.08619487023163Z" fill-rule="evenodd" fill="#3D57DA" fill-opacity="1"/></g><g><path d="M32.929535333251955,40.18366585460663L39.04281533325195,37.42937385460663L38.63204533325195,36.517637854606626L32.518762333251956,39.27192585460663Q31.932904333251955,39.53631585460663,31.606074333251954,40.06922585460663Q31.301685333251953,40.565545854606626,31.301685333251953,41.157305854606626Q31.301685333251953,41.752325854606624,31.606379333251954,42.24784585460663Q31.932416333251954,42.77807585460663,32.51848533325195,43.042555854606626L39.76306533325195,46.30492585460663L45.95468533325195,49.090705854606625L55.246985333251956,53.27440585460663L66.43638533325196,58.31170585460663L66.80318533325195,58.47500585460663Q68.49428533325195,59.23290585460663,70.34908533325196,59.23290585460663Q72.20418533325196,59.23290585460663,73.89278533325195,58.47420585460662L74.49768533325195,58.20180585460663L85.44728533325195,53.27450585460663L94.73978533325194,49.09060585460663L108.17538533325195,43.04274585460663Q108.76138533325195,42.77828585460663,109.08828533325196,42.24538585460663Q109.39268533325195,41.74905585460663,109.39268533325195,41.157305854606626Q109.39268533325195,40.56555585460663,109.08828533325196,40.069215854606625Q108.76138533325195,39.53630585460663,108.17588533325195,39.27205585460663L102.06228533325195,36.517637854606626L101.65148533325196,37.42937385460663L107.76448533325195,40.18353585460663Q108.39268533325195,40.46699585460663,108.39268533325195,41.157305854606626Q108.39268533325195,41.84760585460663,107.76488533325195,42.13087585460663L94.32918533325196,48.17880585460663L85.03688533325194,52.36260585460663L74.08708533325196,57.29000585460663L73.48288533325194,57.56210585460663Q71.98978533325194,58.23290585460663,70.34908533325196,58.23290585460663Q68.70818533325195,58.23290585460663,67.20978533325194,57.56130585460663L66.84688533325195,57.39990585460663L55.657485333251955,52.36260585460663L46.36498533325195,48.178705854606626L40.173665333251954,45.39311585460663L32.92981533325195,42.13106585460663Q32.30168533325195,41.84760585460663,32.30168533325195,41.157305854606626Q32.30168533325195,40.46699585460663,32.929535333251955,40.18366585460663Z" fill-rule="evenodd" fill="#3D57DA" fill-opacity="1"/></g><g><path d="M66.14677810668945,72.97291483898162L66.14677810668945,57.85578513898163L66.14677810668945,57.78771483898163L67.14677810668945,57.78771483898163L67.14677810668945,57.85578513898163L67.14677810668945,72.97291483898162L66.14677810668945,72.97291483898162Z" fill-rule="evenodd" fill="#3D57DA" fill-opacity="1"/></g><g><path d="M73.79741287231445,72.77908632335662L73.79741287231445,72.70058632335663L73.79741287231445,62.84061632335663L73.79741287231445,57.745710323356626L73.79741287231445,57.64098632335663L74.79741287231445,57.64098632335663L74.79741287231445,57.745710323356626L74.79741287231445,62.84061632335663L74.79741287231445,72.70058632335663L74.79741287231445,72.77908632335662L73.79741287231445,72.77908632335662Z" fill-rule="evenodd" fill="#3D57DA" fill-opacity="1"/></g><g><path d="M32.93494228637695,33.76855791710663Q32.30681228637695,33.48509991710663,32.30681228637695,32.79479491710663L31.306812286376953,32.79479491710663Q31.306812286376953,33.38655291710663,31.611201286376954,33.882874917106626Q31.938031286376955,34.41578491710663,32.52361228637695,34.68004491710663L38.63717228637695,37.43445491710663L49.060712286376955,42.12624491710663L55.25221228637695,44.911994917106625L64.54451228637694,49.09569491710663L66.80671228637695,50.11179491710663Q68.49891228637696,50.874294917106624,70.35421228637696,50.874294917106624Q72.20981228637694,50.874294917106624,73.89881228637695,50.11129491710663L74.50281228637695,49.83929491710663L76.15951228637695,49.09599491710663L85.45251228637696,44.91189491710663L102.06201228637696,37.43452491710663L108.17551228637696,34.680174917106626Q108.76131228637695,34.41578491710663,109.08811228637695,33.882874917106626Q109.39251228637696,33.38654991710663,109.39251228637696,32.79479885101663L108.39251228637696,32.79479885101663Q108.39251228637696,33.48510291710663,107.76471228637695,33.76843691710663L101.65151228637696,36.52266491710663L85.04191228637696,44.00009491710663L75.75011228637695,48.18359491710663L74.09221228637696,48.92749491710663L73.48711228637696,49.19999491710663Q71.99441228637696,49.874294917106624,70.35421228637696,49.874294917106624Q68.71381228637695,49.874294917106624,67.21641228637695,49.19949491710663L64.95501228637696,48.18389491710663L55.66251228637695,43.999994917106626L49.47111228637695,41.21436491710663L39.04794228637695,36.52272491710663L32.93494228637695,33.76855791710663Z" fill-rule="evenodd" fill="#3D57DA" fill-opacity="1"/></g><g><path d="M74.50266130981446,34.884721479606625L85.45756130981445,29.957321479606627L85.45786130981446,29.957221479606627L94.74486130981445,25.77352147960663L108.18096130981445,19.725421479606627Q108.76656130981445,19.46112147960663,109.09346130981446,18.928221479606627Q109.39776130981446,18.43192147960663,109.39776130981446,17.84012147960663Q109.39776130981446,17.248421479606627,109.09336130981445,16.75202147960663Q108.76656130981445,16.219121479606628,108.18036130981446,15.954621479606628L106.88806130981445,15.373421479606629L73.89746130981445,0.5230054796066284Q72.20516130981446,-0.23547852039337158,70.35236130981446,-0.23547852039337158Q68.49946130981445,-0.23547852039337158,66.80636130981446,0.5233474796066284L32.528860309814455,15.954921479606629Q31.943280309814455,16.219121479606628,31.616450309814454,16.75202147960663Q31.312061309814453,17.248321479606627,31.312061309814453,17.84012147960663Q31.312061309814453,18.43192147960663,31.616450309814454,18.928221479606627Q31.943281309814452,19.46112147960663,32.529291309814454,19.725521479606627L45.96486130981445,25.77342147960663L55.252161309814454,29.957321479606627L65.67516130981446,34.64882147960663L66.44356130981446,34.99542147960663L66.80716130981446,35.157221479606626Q68.49946130981445,35.91572147960663,70.35426130981446,35.91572147960663Q72.20926130981445,35.91572147960663,73.89836130981445,35.15682147960663L74.50266130981446,34.884721479606625ZM94.33446130981446,24.86162147960663L85.04736130981445,29.045321479606628L85.04706130981445,29.045421479606627L74.09246130981445,33.972721479606626L73.48766130981446,34.24512147960663Q71.99496130981444,34.91572147960663,70.35426130981446,34.91572147960663Q68.71336130981445,34.91572147960663,67.21616130981445,34.24472147960663L66.85006130981445,34.08182147960663L66.08636130981445,33.73732147960663L55.66256130981445,29.045421479606627L46.37556130981445,24.86162147960663L32.93976130981445,18.813721479606627Q32.31206130981445,18.530421479606627,32.31206130981445,17.84012147960663Q32.31206130981445,17.14982147960663,32.94019130981445,16.86632147960663L67.21696130981445,1.4352014796066284Q68.71336130981445,0.7645214796066284,70.35236130981446,0.7645214796066284Q71.99136130981445,0.7645214796066284,73.48846130981445,1.4355414796066284L106.47766130981445,16.28532147960663L107.77026130981446,16.86662147960663Q108.39776130981446,17.14982147960663,108.39776130981446,17.84012147960663Q108.39776130981446,18.530421479606627,107.76966130981445,18.813921479606627L94.33446130981446,24.86162147960663Z" fill-rule="evenodd" fill="#3D57DA" fill-opacity="1"/></g><g><path d="M66.14677810668945,49.46207616710663L66.14677810668945,47.78117616710663L66.14677810668945,39.41362616710663L66.14677810668945,34.53864646710663L66.14677810668945,34.47057616710663L67.14677810668945,34.47057616710663L67.14677810668945,34.53864646710663L67.14677810668945,39.41362616710663L67.14677810668945,47.78117616710663L67.14677810668945,49.46207616710663L66.14677810668945,49.46207616710663Z" fill-rule="evenodd" fill="#3D57DA" fill-opacity="1"/></g><g><path d="M73.79741287231445,49.46198397960663L73.79741287231445,49.37818397960663L73.79741287231445,47.88588397960663L73.79741287231445,39.52349397960663L73.79741287231445,34.42858397960663L74.79741287231445,34.42858397960663L74.79741287231445,39.52349397960663L74.79741287231445,47.88588397960663L74.79741287231445,49.37818397960663L74.79741287231445,49.46198397960663L73.79741287231445,49.46198397960663Z" fill-rule="evenodd" fill="#3D57DA" fill-opacity="1"/></g><g><g><g><path d="M91.04269591064454,16.976041870536804C91.70979591064453,17.279741870536803,91.70979591064453,18.232701870536804,91.04269591064454,18.536401870536807L72.34319591064454,26.951201870536803C71.90019591064453,27.150101870536805,71.43119591064453,27.275801870536803,70.95689591064453,27.317701870536805C71.36339591064453,27.270601870536805,71.76469591064453,27.165801870536804,72.14519591064453,26.993101870536805L90.34429591064453,18.803501870536806L72.14519591064453,10.613951870536804C71.11329591064452,10.147921870536804,69.93539591064453,10.147921870536804,68.89829591064453,10.613951870536804L50.69918591064453,18.803501870536806L68.89829591064453,26.993101870536805C69.27879591064453,27.165901870536803,69.68009591064452,27.270601870536805,70.08659591064453,27.317701870536805C69.61229591064453,27.270601870536805,69.14329591064453,27.150101870536805,68.70029591064453,26.951201870536803L50.00081491064453,18.536401870536807C49.33372291064453,18.232701870536804,49.33372291064453,17.279741870536803,50.00081491064453,16.976041870536804L68.70029591064453,8.561323870536803C69.85729591064452,8.037694870536804,71.18619591064453,8.037694870536804,72.34319591064454,8.561323870536803L91.04269591064454,16.976041870536804Z" fill="#DDDEE4" fill-opacity="1"/></g><g><path d="M70.28968048095703,27.333396792411804C70.44603248095703,27.343982792411804,70.60238348095703,27.343982792411804,70.75351848095703,27.333396792411804C70.59716648095703,27.343982792411804,70.44081548095703,27.343982792411804,70.28968048095703,27.333396792411804Z" fill="#FFFFFF" fill-opacity="1"/></g></g><g><g><path d="M72.14352286376953,26.495101870536804Q71.54392286376952,26.764401870536805,70.91802286376954,26.819601870536804L71.00602286376953,27.815801870536806Q71.79982286376953,27.745601870536806,72.55322286376953,27.407301870536806L91.25302286376953,18.992401870536803Q92.04812286376952,18.630401870536804,92.04812286376952,17.756241870536805Q92.04812286376952,16.882071870536805,91.25502286376954,16.520981870536804L72.55352286376953,8.105362270536805Q70.52692286376953,7.188140870536804,68.49922286376953,8.105803270536803L49.80076086376953,16.520071870536803Q49.00562286376953,16.882071870536805,49.00562286376953,17.756241870536805Q49.00562286376953,18.630401870536804,49.798767863769534,18.991501870536805L68.50022286376952,27.407101870536803Q69.22892286376953,27.734401870536804,70.04222286376952,27.815301870536803L70.14112286376954,26.820201870536803Q69.49002286376952,26.755501870536804,68.91062286376953,26.495201870536803L50.21311586376953,18.081391870536805Q50.00562286376953,17.986931870536804,50.00562286376953,17.756241870536805Q50.00562286376953,17.525561870536805,50.21112386376953,17.432001870536805L68.91152286376953,9.016843870536805Q70.52692286376953,8.285785870536804,72.14322286376952,9.017284870536804L90.84062286376954,17.431091870536804Q91.04812286376952,17.525561870536805,91.04812286376952,17.756241870536805Q91.04812286376952,17.986931870536804,90.84262286376953,18.080491870536804L72.14352286376953,26.495101870536804Z" fill-rule="evenodd" fill="#3D57DA" fill-opacity="1"/></g><g><path d="M70.27495333251953,27.833349136161804Q70.20835333251954,27.831949136161803,70.10825333251952,27.821549136161803Q70.06945333251953,27.817549136161805,70.05325333251953,27.816349136161804Q70.04365333251954,27.815649136161806,70.03415333251954,27.814549136161805Q69.32055333251952,27.731749136161802,68.69675333251953,27.448449136161805L50.49917233251953,19.259589136161804Q50.408476332519534,19.218769136161804,50.34030233251953,19.146359136161806Q50.27212833251953,19.073939136161805,50.23685533251953,18.980949136161804Q50.20158233251953,18.887959136161804,50.204580332519534,18.788549136161805Q50.20757933251953,18.689139136161806,50.24839233251953,18.598439136161804Q50.28599833251953,18.514869136161806,50.35080033251953,18.450069136161805Q50.41560133251953,18.385269136161803,50.49917233251953,18.347659136161802L68.69835333251953,10.158110136161804Q70.52235333251953,9.334352136161804,72.35525333251954,10.157999136161804L90.55465333251954,18.347659136161802Q90.64535333251953,18.388479136161806,90.71355333251952,18.460889136161803Q90.78175333251953,18.533309136161805,90.81695333251953,18.626299136161805Q90.85225333251952,18.719289136161805,90.84925333251954,18.818699136161804Q90.84625333251952,18.918109136161803,90.80545333251953,19.008809136161805Q90.76785333251954,19.092379136161803,90.70305333251953,19.157179136161805Q90.63825333251953,19.221979136161806,90.55465333251954,19.259589136161804L72.35555333251953,27.449149136161804Q71.73835333251952,27.729449136161804,71.03125333251953,27.813149136161805Q70.91015333251953,27.832249136161803,70.77625333251953,27.833449136161803Q70.52205333251953,27.849449136161805,70.27495333251953,27.833349136161804ZM70.32955333251954,26.834749136161804Q70.31235333251954,26.833549136161803,70.29495333251953,26.833549136161803Q70.27555333251954,26.833549136161803,70.21075333251953,26.826849136161805Q70.16825333251953,26.822449136161804,70.14115333251954,26.820149136161803Q69.58785333251953,26.754849136161805,69.11025333251953,26.537949136161803L51.92279333251953,18.803619136161807L69.10865333251954,11.070032136161805Q70.52335333251953,10.431136136161804,71.94545333251953,11.070142136161804L89.13105333251953,18.803619136161807L71.94515333251954,26.537249136161805Q71.46245333251953,26.756449136161805,70.90455333251953,26.821149136161804Q70.89195333251953,26.822649136161804,70.87955333251954,26.824649136161803Q70.82675333251953,26.833549136161803,70.75885333251954,26.833549136161803Q70.74215333251954,26.833549136161803,70.72545333251954,26.834649136161804Q70.52355333251953,26.848149136161805,70.32955333251954,26.834749136161804Z" fill-rule="evenodd" fill="#3D57DA" fill-opacity="1"/></g></g></g><g><path d="M57.95376619262696,77.27701952648162L45.92516619262695,72.02501952648163L40.14025619262695,74.62745952648163L32.489531192626956,78.07292952648163C31.874554192626952,78.35045952648163,31.567066192626953,78.92120952648163,31.567066192626953,79.50243952648162C31.567066192626953,79.97893952648162,31.785955192626954,80.44496952648163,32.208101192626955,80.75390952648164L54.321166192626954,90.36251952648163L57.95896619262695,77.28225952648162L57.95376619262696,77.27701952648162Z" fill="#3D57DA" fill-opacity="1"/></g></g></g></g></g></svg>