<svg xmlns="http://www.w3.org/2000/svg" xmlns:xlink="http://www.w3.org/1999/xlink" fill="none" version="1.1" width="157.54237365722656" height="110" viewBox="0 0 157.54237365722656 110"><defs><clipPath id="master_svg0_1506_9622"><rect x="0" y="0" width="157.54237365722656" height="110" rx="0"/></clipPath></defs><g clip-path="url(#master_svg0_1506_9622)"><g><g><g><ellipse cx="14.078189492225647" cy="53.95747286081314" rx="2.2549586296081543" ry="2.2686734199523926" fill="#C6D6F7" fill-opacity="1"/></g><g><ellipse cx="118.35488879680634" cy="73.6399102807045" rx="3.5957448482513428" ry="3.61761474609375" fill="#C6D6F7" fill-opacity="1"/></g><g><g><ellipse cx="13.77347069978714" cy="19.314336359500885" rx="13.285970687866211" ry="13.366778373718262" fill-opacity="0" stroke-opacity="1" stroke="#C6D6F7" fill="none" stroke-width="1" stroke-linejoin="round"/></g><g><ellipse cx="13.77347069978714" cy="19.31451255083084" rx="13.285970687866211" ry="3.7402455806732178" fill-opacity="0" stroke-opacity="1" stroke="#C6D6F7" fill="none" stroke-width="1" stroke-linejoin="round"/></g><g><ellipse cx="13.77360087633133" cy="19.314336359500885" rx="6.0335373878479" ry="13.366778373718262" fill-opacity="0" stroke-opacity="1" stroke="#C6D6F7" fill="none" stroke-width="1" stroke-linejoin="round"/></g></g><g><g transform="matrix(0,1,-1,0,171.23200100660324,43.00427097082138)"><line x1="64.11386501789093" y1="106.61813598871231" x2="65.95333003997803" y2="106.61813598871231" fill-opacity="0" stroke-opacity="1" stroke="#C6D6F7" fill="none" stroke-width="1" stroke-linejoin="round"/></g><g transform="matrix(0,1,-1,0,175.74140042066574,38.24975436925888)"><line x1="68.74582302570343" y1="106.49557739496231" x2="70.64660358428955" y2="106.49557739496231" fill-opacity="0" stroke-opacity="1" stroke="#C6D6F7" fill="none" stroke-width="1" stroke-linejoin="round"/></g><g><g><path d="M53.124746916328434,100.4173266137123Q53.11156691632843,100.41072661371231,53.09801891632843,100.40482661371232Q52.85153591632843,100.29852661371231,52.85153591632843,100.0055266137123Q52.85153591632843,99.9563266137123,52.84192891632843,99.90802661371231Q52.83232091632843,99.85972661371231,52.81347591632843,99.81422661371231Q52.79462991632843,99.76872661371232,52.76727091632843,99.72782661371231Q52.739910916328434,99.68682661371231,52.70508891632843,99.65202661371231Q52.67026691632843,99.6172266137123,52.62932091632843,99.58982661371232Q52.58837491632843,99.56242661371232,52.54287791632843,99.5436266137123Q52.49738091632843,99.5248266137123,52.44908101632843,99.51512661371231Q52.40078161632843,99.5055266137123,52.35153591632843,99.5055266137123Q52.30229021632843,99.5055266137123,52.25399081632843,99.51512661371231Q52.20569091632843,99.5248266137123,52.16019391632843,99.5436266137123Q52.11469691632843,99.56242661371232,52.07375091632843,99.58982661371232Q52.03280491632843,99.6172266137123,51.99798291632843,99.65202661371231Q51.96316091632843,99.68682661371231,51.93580091632843,99.72782661371231Q51.90844191632843,99.76872661371232,51.88959591632843,99.81422661371231Q51.87075091632843,99.85972661371231,51.86114291632843,99.90802661371231Q51.85153591632843,99.9563266137123,51.85153591632843,100.0055266137123L51.85153591632843,101.90632661371231Q51.85153591632843,102.75262661371231,52.58070891632843,103.19282661371231Q52.59165291632843,103.19942661371232,52.60292091632843,103.20542661371232L64.73093591632843,109.7049266137123Q65.60473591632842,110.19342661371232,66.61263591632843,110.19342661371232Q67.68143591632843,110.19342661371232,68.56303591632843,109.7006266137123Q68.57033591632843,109.69662661371231,68.57743591632843,109.69222661371231L68.87173591632843,109.51462661371231L105.84903591632843,89.5958266137123Q106.36173591632843,89.33390661371232,106.52913591632843,88.66013661371231Q106.54393591632842,88.6007566137123,106.54393591632842,88.53953661371231L106.54393591632842,86.39352661371231Q106.54393591632842,86.34428091371231,106.53433591632843,86.2959815137123Q106.52473591632844,86.24768161371232,106.50583591632844,86.2021846137123Q106.48703591632844,86.15668761371231,106.45963591632844,86.11574161371232Q106.43233591632844,86.07479561371231,106.39743591632843,86.0399736137123Q106.36263591632843,86.00515161371231,106.32173591632844,85.97779161371231Q106.28073591632844,85.95043261371231,106.23523591632843,85.93158661371231Q106.18973591632843,85.91274161371231,106.14143591632843,85.90313361371231Q106.09313591632844,85.89352661371231,106.04393591632842,85.89352661371231Q105.99463591632843,85.89352661371231,105.94633591632842,85.90313461371231Q105.89803591632844,85.91274261371231,105.85253591632843,85.93158861371231Q105.80703591632843,85.95043561371232,105.76613591632844,85.97779661371231Q105.72513591632844,86.00515761371231,105.69033591632842,86.03998161371231Q105.65553591632843,86.07480561371231,105.62813591632843,86.11575361371231Q105.60083591632844,86.15670261371231,105.58193591632843,86.20220261371232Q105.56313591632843,86.24770161371231,105.55353591632843,86.29600411371231Q105.54393591632842,86.34430631371231,105.54393591632842,86.39355473931231L105.54393591632842,86.5719896137123Q105.48773591632843,86.75741561371231,105.39263591632843,86.80526961371231L105.27073591632842,86.86659761371232Q105.26433591632843,86.86983161371231,105.25793591632842,86.8732486137123L68.44723591632842,106.73952661371231Q68.43663591632843,106.7452266137123,68.42633591632843,106.75142661371231L68.12903591632843,106.93092661371232Q67.47753591632843,107.29262661371232,66.67353591632843,107.29262661371232Q65.85473591632842,107.29262661371232,65.29423591632843,106.94012661371231Q65.27963591632843,106.93092661371232,65.26433591632843,106.92282661371232L53.258217916328434,100.48462661371231Q53.25246591632843,100.48162661371231,53.24663491632843,100.47862661371231L53.124746916328434,100.4173266137123ZM105.54393591632842,87.85525661371231L68.93283591632843,107.61372661371232L68.63843591632843,107.7915266137123Q68.63123591632842,107.79582661371231,68.62393591632843,107.79992661371232Q67.74243591632843,108.29262661371232,66.67353591632843,108.29262661371232Q65.57703591632843,108.29262661371232,64.77723591632844,107.7962266137123L52.85153591632843,101.40132661371231L52.85153591632843,101.90632661371231Q52.85153591632843,102.18282661371231,53.08808891632843,102.33092661371231L65.20333591632843,108.82352661371232Q65.86523591632843,109.19342661371232,66.61263591632843,109.19342661371232Q67.41663591632843,109.19342661371232,68.06813591632843,108.8316266137123L68.36543591632844,108.65222661371232Q68.37593591632843,108.64582661371232,68.38663591632843,108.64002661371231L105.38023591632843,88.71252661371231Q105.38633591632842,88.70920661371231,105.39263591632843,88.7060566137123Q105.48773591632843,88.6581966137123,105.54393591632842,88.47277661371231L105.54393591632842,87.85525661371231Z" fill-rule="evenodd" fill="#C6D6F7" fill-opacity="1"/></g><g><path d="M105.62187107257843,87.87475083246231L105.80027107257843,87.87475083246231Q105.91887107257844,87.87475083246231,106.02497107257844,87.8214108324623Q106.54357107257843,87.56055083246231,106.71207107257842,86.88217083246231Q106.72687107257843,86.82279083246232,106.72687107257843,86.7615908324623L106.72687107257843,86.51636083246231Q106.72687107257843,85.67003083246232,105.99767107257843,85.22986083246231Q105.98677107257842,85.22325083246231,105.97547107257843,85.21721083246231L93.84747107257843,78.7177677324623Q93.84177107257844,78.7147112324623,93.83597107257843,78.7118036324623Q91.90477107257843,77.74036083246231,89.97367107257844,78.7118053324623L89.24237107257844,79.0797018324623Q89.23617107257843,79.0828138324623,89.23007107257843,79.0860958324623L52.66315207257843,98.7684008324623Q52.65229707257843,98.77420083246231,52.64174407257843,98.78060083246231Q51.91257107257843,99.22070083246231,51.91257107257843,100.06710083246232Q51.91257107257843,100.91340083246232,52.64173407257843,101.35350083246232Q52.65822107257843,101.36350083246231,52.67542507257843,101.37210083246231L52.79148107257843,101.43050083246231L64.77727107257843,107.85770083246231Q65.57707107257843,108.35410083246231,66.67367107257843,108.35410083246231Q67.74247107257843,108.35410083246231,68.62407107257843,107.86140083246231Q68.63137107257843,107.85730083246231,68.63847107257843,107.85300083246231L68.93297107257843,107.67520083246231L105.62187107257843,87.87475083246231ZM105.63987107257843,86.87475083246231Q105.69117107257843,86.81247083246231,105.72687107257843,86.6948008324623L105.72687107257843,86.51636083246231Q105.72687107257843,86.23989083246231,105.49027107257842,86.09175083246231L93.38097107257843,79.60233083246231Q91.90207107257842,78.86116883246231,90.42307107257844,79.60514083246231L89.69787107257844,79.96993083246231L53.14946307257843,99.64230083246231Q52.91257107257843,99.79040083246231,52.91257107257843,100.06710083246232Q52.91257107257843,100.34070083246232,53.14442607257843,100.48870083246231L53.24672607257843,100.54010083246231Q53.25255707257843,100.54310083246231,53.25830907257843,100.54610083246232L65.26447107257843,106.98430083246231Q65.27967107257842,106.99240083246231,65.29427107257843,107.00160083246232Q65.85487107257843,107.35410083246231,66.67367107257843,107.35410083246231Q67.47767107257843,107.35410083246231,68.12917107257843,106.99240083246231L68.42647107257844,106.8129008324623Q68.43677107257844,106.80670083246231,68.44737107257843,106.80100083246231L105.25807107257843,86.93474083246231Q105.36917107257844,86.87475083246231,105.49557107257843,86.87475083246231L105.63987107257843,86.87475083246231Z" fill-rule="evenodd" fill="#C6D6F7" fill-opacity="1"/></g></g></g><g><g><path d="M65.88127325275421,63.58434385614395C65.69843715275421,63.64564385614395,65.63749325275421,63.64564385614395,65.63749325275421,63.461743856143954L65.63749325275421,45.55759385614395C65.63749325275421,45.37364385614395,65.69843715275421,45.25101385614395,65.88127325275421,45.18970385614395L68.62379325275421,43.77944285614395C70.51308325275421,42.79839585614395,71.97575325275422,42.67576185614395,72.88993325275422,43.411550856143954C73.80410325275422,44.14733385614395,74.2916632527542,45.802853856143955,74.2916632527542,48.25547385614395L74.2916632527542,51.01467385614395C74.2916632527542,53.83514385614395,73.86505325275421,56.10384385614395,72.9508732527542,57.943343856143954C72.03670325275421,59.72144385614395,70.69592325275421,61.131743856143956,68.8066232527542,62.11274385614395L65.88127325275421,63.58434385614395ZM67.46583325275421,61.00914385614395L68.62379325275421,60.39594385614395C70.02552325275421,59.66014385614395,71.00064325275422,58.67914385614395,71.5491432527542,57.39144385614395C72.15859325275422,56.10384385614395,72.40237325275422,54.32574385614395,72.40237325275422,52.118353856143955L72.40237325275422,49.11389385614395C72.40237325275422,47.21311385614395,72.09765325275421,45.92548385614395,71.48820325275422,45.37364385614395C70.87875325275421,44.82180385614395,69.90363325275422,44.88311385614395,68.50190325275422,45.55759385614395L67.46584325275421,46.10943385614395L67.46583325275421,61.00914385614395Z" fill="#C6D6F7" fill-opacity="1"/></g><g><path d="M76.9123702683792,57.94324776239395C76.79048286837921,58.004547762393955,76.72953426837921,57.94324776239395,76.72953426837921,57.759247762393954L76.72953426837921,39.85512776239395C76.72953426837921,39.67117776239395,76.79047816837921,39.54854776239395,76.9123702683792,39.48723776239395L79.22827426837921,38.322237762393954C79.35016426837922,38.26092776239395,79.41111426837921,38.26092776239395,79.47205426837921,38.38355776239395L82.51929426837921,47.642147762393954C82.6411842683792,48.07144776239395,82.82401426837922,48.50064776239395,82.94590426837921,49.05244776239395C83.06779426837922,49.60424776239395,83.25062426837921,50.094847762393954,83.3725142683792,50.646647762393954C83.49440426837921,51.198447762393954,83.6162942683792,51.689047762393955,83.73819426837922,52.11824776239395L83.7991342683792,52.11824776239395C83.7991342683792,51.75034776239395,83.73819426837922,51.32114776239395,83.73819426837922,50.891947762393954C83.73819426837922,50.46274776239395,83.67724426837921,49.97214776239395,83.67724426837921,49.54294776239395C83.67724426837921,49.11374776239395,83.67724426837921,48.62324776239395,83.67724426837921,48.19404776239395C83.67724426837921,47.764847762393956,83.67724426837921,47.335647762393954,83.67724426837921,46.967747762393955L83.67724426837921,36.36014776239395C83.67724426837921,36.23751776239395,83.73819426837922,36.11488576239395,83.86007426837921,36.05357176239395L85.2008642683792,35.379102062393954C85.32274426837921,35.31778746239395,85.38369426837922,35.379102062393954,85.38369426837922,35.501733762393954L85.38369426837922,53.46714776239395C85.38369426837922,53.65114776239395,85.32274426837921,53.77374776239395,85.2008642683792,53.835047762393955L82.88495426837922,55.00004776239395C82.76306426837921,55.06134776239395,82.70212426837921,55.06134776239395,82.70212426837921,54.93874776239395L79.77676426837921,45.98664776239395C79.47204426837921,45.12826776239395,79.2282642683792,44.26984776239395,79.04543426837921,43.472757762393954C78.86259426837921,42.67564776239395,78.67975426837921,41.87854776239395,78.4969342683792,41.14275776239395L78.43598426837922,41.14275776239395C78.43598426837922,41.694597762393954,78.4969342683792,42.24644776239395,78.4969342683792,42.920917762393955C78.4969342683792,43.59537776239395,78.4969342683792,44.26984776239395,78.4969342683792,44.88300776239395C78.4969342683792,45.55744776239395,78.4969342683792,46.170647762393955,78.4969342683792,46.66114776239395L78.4969342683792,56.90084776239395C78.4969342683792,57.08474776239395,78.43598426837922,57.207447762393954,78.31409426837921,57.26874776239395L76.9123702683792,57.94324776239395Z" fill="#C6D6F7" fill-opacity="1"/></g><g><path d="M91.47824129962922,50.64673174676895C90.44218129962921,51.13723174676895,89.6499012996292,51.32123174676895,89.10140129962922,51.19853174676895C88.49194929962921,51.07593174676895,88.0653372996292,50.64673174676895,87.88250029962921,49.972231746768955C87.6387251996292,49.29783174676895,87.57777659962922,48.43933174676895,87.6387251996292,47.45833174676895C87.6387251996292,47.27433174676895,87.69967369962922,47.15173174676895,87.82156129962921,47.09043174676895L89.22329129962921,46.35463174676895C89.34518129962922,46.29333174676895,89.46707129962921,46.35463174676895,89.40613129962921,46.53863174676895C89.28424129962922,47.76493174676895,89.40613129962921,48.56203174676895,89.77180129962922,48.92993174676895C90.13747129962921,49.29783174676895,90.74692129962921,49.29783174676895,91.53920129962921,48.868631746768955C92.27053129962921,48.50073174676895,92.8190412996292,48.01013174676895,93.18471129962921,47.39703174676895C93.55038129962921,46.78383174676895,93.7332112996292,45.98673174676895,93.7332112996292,45.06703174676895C93.7332112996292,44.269931746768954,93.61132129962921,43.59543174676895,93.3675312996292,43.22753174676895C93.12376129962921,42.79833174676895,92.75809129962921,42.553131746768955,92.20959129962921,42.43043174676895L89.95463129962921,41.81733174676895C89.1623412996292,41.63333174676895,88.61384629962922,41.20415174676895,88.24817329962922,40.65231174676895C87.88250029962921,40.10047174676895,87.69967369962922,39.24205174676895,87.69967369962922,38.19969174676895C87.69967369962922,36.85075174676895,88.06534629962921,35.62444174676895,88.73573129962921,34.58207174676895C89.4061212996292,33.53971174676895,90.32030129962921,32.68129174676895,91.4782512996292,32.06813874676895C92.87998129962921,31.33235274676895,93.85509129962921,31.27103774676895,94.52549129962921,31.884192746768953C95.19589129962921,32.43603374676895,95.43966129962921,33.53971174676895,95.25683129962921,35.195231746768954C95.25683129962921,35.379171746768954,95.1958812996292,35.56312174676895,95.07399129962921,35.62444174676895L93.67226129962921,36.36022174676895C93.5503712996292,36.42154174676895,93.48942129962921,36.36022174676895,93.48942129962921,36.114961746768955C93.61131129962921,35.01128174676895,93.48942129962921,34.27550174676895,93.1237512996292,33.907601746768954C92.75808129962921,33.53971174676895,92.2095812996292,33.53971174676895,91.5391812996292,33.907601746768954C90.92973129962921,34.21418174676895,90.44217129962921,34.64339174676895,90.1374512996292,35.25655174676895C89.77177129962921,35.80839174676895,89.58895129962922,36.54417174676895,89.58895129962922,37.34127174676895C89.58895129962922,38.07706174676895,89.7108312996292,38.690221746768955,89.95462129962921,39.05811174676895C90.19840129962921,39.426001746768954,90.62502129962921,39.73258174676895,91.17352129962921,39.85521174676895L93.3675312996292,40.46836174676895C93.91603129962921,40.59099174676895,94.34265129962921,40.83625174676895,94.64738129962922,41.08152174676895C94.9521012996292,41.38810174676895,95.1958812996292,41.756031746768954,95.37871129962922,42.307831746768954C95.50060129962921,42.79833174676895,95.62249129962922,43.472831746768954,95.62249129962922,44.269931746768954C95.62249129962922,45.68023174676895,95.31777129962921,46.96783174676895,94.64737129962921,48.13283174676895C93.91603129962921,48.991231746768946,92.87996129962922,49.91093174676895,91.47824129962922,50.64673174676895Z" fill="#C6D6F7" fill-opacity="1"/></g></g><g><path d="M77.934065042305,72.98153225336074Q53.90576504230499,70.08153225336075,30.210297042304994,61.82423225336075L29.88123304230499,62.768532253360746Q53.67876504230499,71.06133225336075,77.81416504230499,73.97423225336075Q99.11836504230499,76.54563225336075,117.947365042305,74.66613225336074Q135.035765042305,72.96053225336075,145.965765042305,68.10803225336075Q151.139765042305,65.81083225336074,154.11376504230498,63.08323225336075Q157.174765042305,60.274932253360745,157.610765042305,57.279232253360746Q158.642765042305,50.20004225336075,151.18576504230498,42.99047625336075L150.490765042305,43.70938625336075Q157.578765042305,50.56279225336075,156.62076504230498,57.13523225336075Q156.236765042305,59.778732253360744,153.437765042305,62.34623225336075Q150.58476504230498,64.96333225336075,145.559765042305,67.19403225336075Q134.776765042305,71.98143225336075,117.848065042305,73.67113225336075Q99.12876504230499,75.53963225336075,77.934065042305,72.98153225336074Z" fill-rule="evenodd" fill="#C6D6F7" fill-opacity="1"/></g><g><path d="M44.8365886751175,16.01208197211075Q58.95498867511749,15.247240572110748,72.4034886751175,16.867638972110747L72.52308867511749,15.874820972110749Q58.987888675117496,14.243988972110749,44.78248867511749,15.013545972110748Q34.467578675117494,15.572343972110748,26.83885737511749,17.10736897211075L27.036119975117494,18.08771897211075Q34.59388867511749,16.566968972110747,44.8365886751175,16.01208197211075Z" fill-rule="evenodd" fill="#C6D6F7" fill-opacity="1"/></g><g><g><path d="M102.18790894855499,3.8168284877357483Q102.762429948555,4.298502487735748,103.13750594855499,4.8268024877357485L103.21520394855499,4.936242487735749L103.337262948555,4.9920624877357485Q104.34716394855499,5.453902487735748,104.923633948555,5.867392487735748L105.073753948555,5.9798624877357485L105.373543948555,5.5797124877357485L105.68168394855499,5.1859424877357485Q105.604033948555,5.125182487735748,105.519013948555,5.063932487735748L102.80894194855499,3.0335204877357484L102.18790894855499,3.8168284877357483Z" fill-rule="evenodd" fill="#C6D6F7" fill-opacity="1"/></g><g><path d="M103.75307148761749,4.021314143985748Q99.3653714876175,2.014795143985748,94.52527148761749,3.2553343439857483L94.5245714876175,3.2555226439857483L94.52307148761749,3.2559024439857485Q90.8336714876175,4.184338143985748,87.21757148761749,6.677975143985748Q83.72307148761749,9.087825143985748,80.6149714876175,12.735935143985749Q77.5393714876175,16.345995143985746,75.1470714876175,20.76239514398575Q72.8415714876175,25.01859514398575,71.4034714876175,29.597195143985747Q64.75777148761749,27.57649514398575,57.45427148761749,32.07039514398575Q55.20607148761749,33.44189514398575,53.12817148761749,36.04529514398575Q51.02537148761749,38.67999514398575,49.47347148761749,42.10919514398575Q47.83427148761749,45.73109514398575,47.05947148761749,49.70689514398575Q46.28207148761749,53.69539514398575,46.456171487617496,57.65929514398575Q40.581571487617495,56.95979514398575,33.68939148761749,64.79049514398575Q31.885031487617493,66.88319514398574,30.55830148761749,69.48369514398574Q29.075738487617492,72.38949514398576,28.443710387617493,75.46299514398575Q26.91322148761749,82.90539514398574,30.583651487617495,89.51799514398574L30.589621487617492,89.52879514398575L30.596101487617492,89.53919514398575Q30.908881487617492,90.04269514398575,31.527301487617493,90.91369514398575L31.530651487617494,90.91849514398575L31.534121487617494,90.92309514398575Q32.06058148761749,91.62929514398574,32.827361487617495,92.29059514398575L32.84250148761749,92.30359514398575L34.21731148761749,93.30959514398575L34.23628148761749,93.32099514398575Q36.338111487617496,94.58979514398575,38.47859148761749,94.49619514398574Q46.772471487617494,94.12259514398575,59.24757148761749,86.33439514398574L103.4690714876175,62.00559514398575Q122.5722714876175,52.85569514398575,122.57237148761749,32.68119514398575Q122.57237148761749,29.53829514398575,121.8204714876175,26.836695143985747Q120.4253714876175,22.130795143985747,116.7865714876175,20.11319514398575Q116.25437148761749,19.760295143985747,115.5414714876175,19.519495143985747Q113.8225714876175,18.830795143985746,111.8662714876175,18.814795143985748Q111.87717148761749,18.01279514398575,111.78347148761749,16.881795143985748Q111.4642714876175,13.027755143985749,109.9081714876175,10.032185143985748Q108.4342714876175,7.194855143985748,105.9844714876175,5.3682951439857485L105.6745714876175,5.118825143985749L105.66137148761749,5.109595143985748Q105.0217714876175,4.6591151439857486,103.7699714876175,4.029382143985749L103.7698714876175,4.029354143985748L103.76157148761749,4.025179143985748L103.75307148761749,4.021314143985748ZM87.78527148761749,7.501215143985748Q91.25377148761748,5.109325143985748,94.7691714876175,4.225132143985748L94.77147148761749,4.2245631439857485Q99.26557148761749,3.0720481439857483,103.32877148761749,4.9268751439857486Q104.49537148761749,5.514135143985748,105.07287148761749,5.918205143985748L105.37207148761749,6.159075143985748L105.37967148761749,6.164705143985748Q107.6504714876175,7.855315143985749,109.0207714876175,10.493165143985749Q110.48427148761749,13.310495143985749,110.78687148761749,16.964295143985748Q110.90797148761749,18.425995143985748,110.8473714876175,19.278995143985746L110.8093714876175,19.81439514398575L111.77277148761749,19.81439514398575Q113.5956714876175,19.81439514398575,115.1817714876175,20.45269514398575L115.1954714876175,20.458195143985748L115.20947148761749,20.462895143985747Q115.8161714876175,20.66639514398575,116.24787148761749,20.95589514398575L116.26587148761749,20.96799514398575L116.2848714876175,20.978495143985747Q119.57967148761749,22.79629514398575,120.8616714876175,27.12089514398575Q121.57237148761749,29.674895143985747,121.57237148761749,32.68119514398575Q121.57247148761749,52.23249514398575,103.0245714876175,61.10979514398575L103.0118714876175,61.115895143985746L58.74137148761749,85.47159514398575L58.729671487617495,85.47889514398575Q46.46927148761749,93.13509514398575,38.43359148761749,93.49719514398575Q36.60560148761749,93.57709514398574,34.77183148761749,92.47619514398575L33.465481487617495,91.52039514398575Q32.79417148761749,90.93909514398575,32.33922148761749,90.32999514398576Q31.74777148761749,89.49669514398575,31.45199148761749,89.02189514398574Q27.968596487617493,82.73779514398575,29.423213487617492,75.66439514398574Q30.02799148761749,72.72349514398574,31.44906148761749,69.93819514398575Q32.72106148761749,67.44499514398575,34.446741487617494,65.44359514398575Q41.32267148761749,57.631295143985746,46.89077148761749,58.74009514398575L47.528071487617495,58.86699514398575L47.487371487617494,58.218395143985745Q47.2271714876175,54.07359514398575,48.0409714876175,49.898195143985745Q48.793471487617495,46.03699514398575,50.38447148761749,42.521495143985746Q51.88487148761749,39.206195143985745,53.90977148761749,36.66909514398575Q55.87757148761749,34.20369514398575,57.97507148761749,32.92399514398575Q65.15027148761749,28.50919514398575,71.57037148761749,30.70169514398575L72.06037148761749,30.86909514398575L72.2104714876175,30.37349514398575Q73.64697148761749,25.63139514398575,76.0263714876175,21.238695143985748Q78.36867148761749,16.91459514398575,81.37617148761748,13.384495143985749Q84.3989714876175,9.836425143985748,87.78527148761749,7.501215143985748Z" fill-rule="evenodd" fill="#C6D6F7" fill-opacity="1"/></g><g><path d="M32.888372425117495,92.22937767523575Q33.78827842511749,93.00540467523575,34.33092242511749,93.27838467523574L39.71319242511749,95.98595467523575L23.418742425117493,84.06332467523575L32.88830342511749,92.22931867523575L32.888372425117495,92.22937767523575Z" fill-rule="evenodd" fill="#C6D6F7" fill-opacity="1"/></g><g><path d="M125.21386289386749,26.54047350336075L107.5897428938675,12.749373503360747L113.24643289386749,18.440686503360748Q113.46420589386749,18.65979350336075,113.8710488938675,18.93266950336075L125.21386289386749,26.54047350336075Z" fill-rule="evenodd" fill="#C6D6F7" fill-opacity="1"/></g><g><path d="M102.78156996418,2.9997165346107484Q101.86063996418,2.1761396346107484,101.00020596418,1.6567395346107483L92.72118996418,-3.3408844653892515L111.73180996417999,11.003795534610749L102.78156996418,2.9997165346107484Z" fill-rule="evenodd" fill="#C6D6F7" fill-opacity="1"/></g><g><path d="M114.86451316730499,18.568664440860747Q115.266703167305,18.969844440860747,115.86754316730499,19.66068444086075L115.867663167305,19.660824440860747L117.23104316730499,21.22841444086075L115.303723167305,20.45279444086075Q113.71757316730499,19.81447444086075,111.894653167305,19.81447444086075L110.96804216730499,19.81447444086075L110.96804216730499,19.31447444086075Q110.96804216730499,17.739364440860747,110.90854816730499,16.96129484086075L110.85105116730499,16.209331440860748L111.566072167305,16.449122440860748Q112.75715316730499,16.848566140860747,113.94782316730499,17.67788244086075L113.95923316730499,17.685829440860747L114.962033167305,18.47054444086075L114.86451316730499,18.568664440860747ZM113.70847316730499,18.75938444086075L113.36499316730499,18.49060444086075Q112.651463167305,17.99495444086075,111.945834167305,17.67334044086075Q111.96203616730499,18.168524440860747,111.966418167305,18.814704440860748Q112.94123316730499,18.820834440860747,113.857193167305,18.993764440860748L113.85590316730499,18.992474440860747Q113.75073316730499,18.88665444086075,113.70847316730499,18.75938444086075Z" fill-rule="evenodd" fill="#C6D6F7" fill-opacity="1"/></g><g><path d="M33.569418714179996,91.49843201898575Q32.72977871417999,90.65369001898574,32.376498714179995,90.23903401898575L32.31091871417999,90.16206801898575L32.22059871417999,90.11662901898575Q32.09782871417999,90.05486901898576,31.84571871417999,89.93183201898574Q31.08319071417999,89.55970101898575,30.73843471417999,89.34291801898574L21.193948714179992,83.34132201898575L38.65265871417999,96.61256201898576L33.569418714179996,91.49843201898575Z" fill-rule="evenodd" fill="#C6D6F7" fill-opacity="1"/></g><g><path d="M113.88403096418,19.01862531586075Q114.55684796418,19.59882331586075,115.09482896418,20.29472131586075L115.18760596418,20.41473131586075L115.33141996417999,20.46296131586075Q115.56992996417999,20.542951315860748,116.13872996417999,20.84030131586075Q116.33057996417999,20.940601315860746,116.42365996417999,20.987421315860747L120.96282996417999,23.27078131586075L114.51800596417999,18.245665315860748L113.88403096418,19.01862531586075Z" fill-rule="evenodd" fill="#C6D6F7" fill-opacity="1"/></g><g><path d="M106.03300890167999,5.411430425235748Q105.79288190167999,5.169821425235749,105.59832890167999,5.0719594252357485L101.39313590168,2.9566934252357484L112.39024590167999,11.807883425235747L106.03300890167999,5.411430425235748Z" fill-rule="evenodd" fill="#C6D6F7" fill-opacity="1"/></g><g><path d="M30.206231839179992,90.18919358148575Q31.162221839179992,90.79039358148574,31.89797183917999,91.03709358148575L33.60559183917999,91.60979358148575L32.437551839179996,90.23879358148575Q31.892321839179992,89.59879358148575,31.59053183917999,88.99159358148574L31.58547183917999,88.98139358148575L31.57995183917999,88.97139358148574Q28.081911839179995,82.66929358148575,29.52249183917999,75.60229358148575Q30.123161839179993,72.65559358148575,31.54502183917999,69.87749358148575Q32.82458183917999,67.37739358148575,34.56837183917999,65.38269358148575Q41.264731839179994,57.63199358148575,46.82983183917999,58.740093581485745L47.46723183917999,58.86709358148575L47.426531839179994,58.21839358148575Q47.16643183917999,54.07579358148575,47.97913183917999,49.898093581485746Q48.729831839179994,46.03949358148575,50.31623183917999,42.52089358148575Q51.81013183917999,39.20769358148575,53.82413183918,36.66789358148575Q55.778431839179994,34.203493581485745,57.854831839179994,32.92309358148575Q65.02853183917999,28.50919358148575,71.44853183917999,30.70179358148575L71.93853183918,30.86909358148575L72.08863183918,30.373493581485747Q73.53303183917998,25.60549358148575,75.90483183917999,21.21529358148575Q78.26333183917998,16.84969358148575,81.25223183917998,13.386993581485749Q84.30253183917999,9.85315358148575,87.66443183918,7.5236135814857485Q91.15793183918,5.102853581485748,94.64733183918,4.225183581485748Q99.38563183918,3.0333935814857482,103.32883183918,4.926803581485748L105.45663183917999,5.948503581485748L103.92583183917999,4.151803581485748Q103.35883183918,3.4863135814857484,102.78713183917999,3.004093581485748L102.71683183917999,2.9333735814857484L100.96193183918,1.6092135814857482L100.94053183918,1.5961835814857483Q98.65273183917999,0.2055741814857483,95.94023183917999,-0.15828841851425168Q93.22573183917999,-0.5224264185142518,90.44203183917999,0.1896113814857483Q86.75153183917999,1.1178515814857484,83.13433183917999,3.6122535814857484Q79.63973183918,6.022103581485748,76.53173183918,9.670203581485747Q73.45603183917999,13.280293581485749,71.06383183917998,17.69669358148575Q68.76623183918,21.93829358148575,67.33013183917998,26.499893581485747Q67.31713183917999,26.49449358148575,67.30723183917999,26.490393581485748Q66.25693183918,26.050293581485747,65.48643183918,25.860993581485747Q64.12553183917998,25.526793581485748,62.633331839179995,25.60139358148575Q58.57653183917999,25.80409358148575,53.37103183917999,29.00459358148575Q51.122831839179995,30.376193581485747,49.044931839179995,32.97959358148575Q46.94213183917999,35.61429358148575,45.39023183917999,39.04349358148575Q43.751031839179994,42.665393581485745,42.97623183917999,46.64119358148575Q42.19893183917999,50.62919358148575,42.37293183918,54.59259358148575Q36.560331839179995,53.894893581485746,29.790741839179994,61.66149358148575L29.778201839179992,61.675893581485745L29.59260183917999,61.92479358148575Q25.861816839179994,66.37159358148575,24.814659839179992,72.41259358148575Q23.588711839179993,79.48489358148575,26.663411839179993,86.41249358148575L26.665681839179992,86.41759358148575L26.66805183917999,86.42259358148574Q27.12178183917999,87.38629358148575,28.065071839179993,88.39779358148574Q29.028681839179992,89.43099358148575,30.206231839179992,90.18919358148575ZM30.589361839179993,89.24469358148575Q27.052481839179993,82.71289358148574,28.542641839179993,75.40259358148575Q29.170631839179993,72.32179358148575,30.65483183917999,69.42189358148575Q31.990561839179993,66.81209358148575,33.81167183917999,64.72889358148575Q40.52703183917999,56.956293581485745,46.39533183917999,57.65909358148575Q46.221331839179996,53.69719358148575,46.99753183917999,49.70709358148575Q47.77043183917999,45.73439358148575,49.40463183917999,42.10989358148575Q50.94953183918,38.683593581485745,53.040631839179994,36.04659358148575Q55.10413183917999,33.44449358148575,57.33083183917999,32.07139358148575Q64.63593183917999,27.57669358148575,71.28163183918,29.597193581485747Q72.72643183918,24.99459358148575,75.02503183918,20.73989358148575Q77.43523183917999,16.278693581485747,80.49523183918,12.733493581485748Q83.62853183918,9.103553581485748,87.09483183917999,6.701663581485748Q90.73773183917999,4.177393581485749,94.40343183917999,3.255383581485748Q98.08593183917999,2.3291535814857482,101.33913183918,3.1465435814857483L100.39993183918,2.4378335814857484Q98.29963183918,1.1671675814857483,95.80733183918,0.8328335814857483Q93.28533183917999,0.49452358148574826,90.68593183917999,1.1594055814857482Q87.17053183918,2.0436035814857485,83.70203183918,4.435483581485748Q80.31573183917999,6.770713581485748,77.29293183918,10.318693581485748Q74.28533183918,13.848893581485749,71.94313183917998,18.17299358148575Q69.56373183918,22.56569358148575,68.12723183917998,27.307793581485747L67.97793183918,27.80059358148575L67.48973183918,27.636893581485747Q67.32023183918,27.57999358148575,66.92083183917998,27.412693581485748Q65.94253183917999,27.002793581485747,65.24793183917998,26.832193581485747Q64.02913183918,26.532893581485748,62.683231839179996,26.600093581485748Q58.882231839179994,26.79009358148575,53.89183183917999,29.85829358148575Q51.79423183917999,31.13799358148575,49.82653183917999,33.60339358148575Q47.80163183917999,36.140393581485746,46.30123183917999,39.45579358148575Q44.71023183918,42.971293581485746,43.95773183917999,46.83249358148575Q43.14393183917999,51.007893581485746,43.404131839179996,55.15269358148575L43.44493183917999,55.802593581485745L42.806531839179996,55.674193581485746Q37.306531839179996,54.56749358148575,30.557101839179992,62.30419358148575L30.377011839179993,62.545793581485746L30.36765183917999,62.556893581485745Q26.80235183917999,66.80069358148575,25.799966839179994,72.58339358148575Q24.626310839179993,79.35399358148575,27.57514183917999,86.00159358148575Q27.962391839179993,86.82149358148575,28.796401839179993,87.71579358148576Q29.612951839179992,88.59129358148574,30.589361839179993,89.24469358148575Z" fill-rule="evenodd" fill="#C6D6F7" fill-opacity="1"/></g><g><path d="M138.89352344074248,34.20682850336075Q131.46462344074249,30.05456850336075,121.6327624407425,26.50849550336075L121.29348444074249,27.449181503360748Q131.04823344074248,30.967438503360746,138.4056234407425,35.07972850336075L138.89352344074248,34.20682850336075Z" fill-rule="evenodd" fill="#C6D6F7" fill-opacity="1"/></g><g><line x1="121.46312344074249" y1="26.78547912836075" x2="122.07257169485092" y2="26.78547912836075" fill-opacity="0" stroke-opacity="1" stroke="#C6D6F7" fill="none" stroke-width="1" stroke-linejoin="round"/></g><g transform="matrix(0.7956408262252808,0.6057686805725098,-0.6011154055595398,0.7991622686386108,36.294931995134846,-66.37614053776738)"><line x1="116.46458828449249" y1="20.28523498773575" x2="119.29872977733612" y2="20.28523498773575" fill-opacity="0" stroke-opacity="1" stroke="#C6D6F7" fill="none" stroke-width="1"/></g><g transform="matrix(0.7982487678527832,0.6023278832435608,-0.5976709723472595,0.8017414808273315,24.87516733766506,-62.35155515386549)"><line x1="105.49547207355499" y1="5.508867800235748" x2="105.80086475610733" y2="5.508867800235748" fill-opacity="0" stroke-opacity="1" stroke="#C6D6F7" fill="none" stroke-width="1"/></g><g transform="matrix(0.8024484515190125,0.5967214107513428,-0.592059850692749,0.8058940768241882,58.38276261955465,0.030621409749514328)"><line x1="28.889515042304993" y1="88.47004944086075" x2="30.636332631111145" y2="88.47004944086075" fill-opacity="0" stroke-opacity="1" stroke="#C6D6F7" fill="none" stroke-width="1"/></g><g><path d="M29.484851956367493,62.29646545648575Q29.484851956367493,62.34571115648575,29.49445895636749,62.394010556485746Q29.50406695636749,62.44231045648575,29.522911956367494,62.48780745648575Q29.541757956367494,62.53330445648575,29.56911695636749,62.57425045648575Q29.596476956367493,62.61519645648575,29.63129895636749,62.650018456485746Q29.666120956367493,62.68484045648575,29.70706695636749,62.712200456485746Q29.748012956367493,62.73955945648575,29.793509956367494,62.75840545648575Q29.83900695636749,62.777250456485746,29.88730685636749,62.786858456485746Q29.935606256367493,62.79646545648575,29.984851956367493,62.79646545648575L30.01532385636749,62.79646545648575Q30.06456955636749,62.79646545648575,30.112868956367493,62.786858456485746Q30.161168956367494,62.777250456485746,30.20666595636749,62.75840545648575Q30.252162956367492,62.73955945648575,30.293108956367494,62.712200456485746Q30.334054956367492,62.68484045648575,30.368876956367494,62.650018456485746Q30.403698956367492,62.61519645648575,30.431058956367494,62.57425045648575Q30.458417956367494,62.53330445648575,30.477263956367494,62.48780745648575Q30.496108956367493,62.44231045648575,30.505715956367492,62.394010556485746Q30.515323956367492,62.34571115648575,30.515323956367492,62.29646545648575Q30.515323956367492,62.24721975648575,30.505715956367492,62.19892035648575Q30.496108956367493,62.15062045648575,30.477263956367494,62.10512345648575Q30.458417956367494,62.059626456485745,30.431058956367494,62.01868045648575Q30.403698956367492,61.97773445648575,30.368876956367494,61.94291245648575Q30.334054956367492,61.908090456485745,30.293108956367494,61.88073045648575Q30.252162956367492,61.853371456485746,30.20666595636749,61.83452545648575Q30.161168956367494,61.81568045648575,30.112868956367493,61.80607245648575Q30.06456955636749,61.79646545648575,30.01532385636749,61.79646545648575L29.984851956367493,61.79646545648575Q29.935606256367493,61.79646545648575,29.88730685636749,61.80607245648575Q29.83900695636749,61.81568045648575,29.793509956367494,61.83452545648575Q29.748012956367493,61.853371456485746,29.70706695636749,61.88073045648575Q29.666120956367493,61.908090456485745,29.63129895636749,61.94291245648575Q29.596476956367493,61.97773445648575,29.56911695636749,62.01868045648575Q29.541757956367494,62.059626456485745,29.522911956367494,62.10512345648575Q29.50406695636749,62.15062045648575,29.49445895636749,62.19892035648575Q29.484851956367493,62.24721975648575,29.484851956367493,62.29646545648575Z" fill-rule="evenodd" fill="#C6D6F7" fill-opacity="1"/></g><g><path d="M7.195496721992493,49.29739553461074Q15.105486721992493,56.58749553461075,29.852886721992494,62.75769553461075L30.238786721992494,61.83519553461075Q15.653786721992493,55.73289553461075,7.8731967219924925,48.561995534610745Q-0.030346278007507332,41.27789553461075,0.9217557219924927,34.52908553461075Q1.3500167219924928,31.16868553461075,4.022536721992493,28.300661534610747L3.2909267219924927,27.61892953461075Q0.3987645219924927,30.722665534610748,-0.06843827800750735,34.389385534610746Q-0.5858822780075074,38.05719553461075,1.3421567219924926,41.91239553461075Q3.1886867219924926,45.60459553461075,7.195496721992493,49.29739553461074Z" fill-rule="evenodd" fill="#C6D6F7" fill-opacity="1"/></g></g><g><path d="M143.2202325032425,41.14254889398575L142.5498325032425,42.79808889398575C141.8794425032425,42.36888889398575,141.3918925032425,41.75568889398575,141.14810250324248,41.08122889398575L142.8545625032425,40.77464889398575C143.0374025032425,40.77464889398575,143.15928250324248,40.83596889398575,143.2202325032425,41.019918893985746L143.2202325032425,41.08122889398575Q143.2202325032425,41.08123889398575,143.2202325032425,41.14254889398575ZM142.67173250324248,39.73229889398575C142.85457250324248,39.67097889398575,142.9155125032425,39.54834889398575,142.85457250324248,39.36439889398575Q142.85457250324248,39.303088893985745,142.7936225032425,39.24176889398575L141.4528425032425,38.07677889398575C141.0871625032425,38.628618893985745,140.9043425032425,39.24176889398575,140.9652725032425,39.91623889398575C140.9652725032425,40.03886889398575,140.9652725032425,40.16150889398575,140.9652725032425,40.34544889398575L142.67173250324248,39.73229889398575ZM143.4640125032425,38.38334889398575C143.5858925032425,38.50597889398575,143.7687325032425,38.44466889398575,143.8906225032425,38.32203889398575C143.9515725032425,38.26071889398575,143.9515725032425,38.19940889398575,143.9515725032425,38.138088893985746L144.0734525032425,36.35993889398575C143.2811725032425,36.48256889398575,142.6107825032425,36.78914889398575,142.0622725032425,37.340988893985745L143.4640125032425,38.38334889398575ZM143.9515725032425,40.222818893985746L144.4391325032425,40.46807889398575L144.9266925032425,40.222818893985746L145.0485825032425,39.67097889398575L144.6829025032425,39.24176889398575L144.13440250324248,39.24176889398575L143.7687325032425,39.67097889398575L143.9515725032425,40.222818893985746ZM144.98763250324248,38.138088893985746C144.98763250324248,38.32203889398575,145.10951250324248,38.44466889398575,145.29235250324248,38.44466889398575C145.3533025032425,38.44466889398575,145.4142425032425,38.44466889398575,145.47519250324248,38.38334889398575L146.9379125032425,37.340988893985745C146.38931250324248,36.78914889398575,145.6580125032425,36.48256889398575,144.9266825032425,36.35993889398575L144.98763250324248,38.138088893985746ZM152.3010125032425,42.18488889398575L148.40051250324248,47.02888889398575C148.2177125032425,47.27408889398575,147.9130125032425,47.458088893985746,147.5473125032425,47.458088893985746L141.2700025032425,47.458088893985746C140.9652725032425,47.458088893985746,140.66055250324249,47.33538889398575,140.4167825032425,47.02888889398575L136.5163125032425,42.12358889398575C136.33347640324249,41.87828889398575,136.2115886032425,41.510448893985746,136.33347640324249,41.20386889398575L137.73521250324248,35.13362889398575C137.7961625032425,34.82705889398575,138.03993250324248,34.52047889398575,138.3446525032425,34.397848893985746L143.9515825032425,31.699963093985748C144.2563025032425,31.577331593985747,144.6219725032425,31.577331593985747,144.8657525032425,31.699963093985748L150.4727125032425,34.397848893985746C150.7774125032425,34.52047889398575,150.9602125032425,34.82705889398575,151.08211250324248,35.13362889398575L152.4838125032425,41.20386889398575C152.6057125032425,41.571758893985745,152.4838125032425,41.87828889398575,152.3010125032425,42.18488889398575ZM150.1070125032425,40.774658893985745Q150.04601250324248,40.774658893985745,149.9851125032425,40.774658893985745C149.8632125032425,40.774658893985745,149.74131250324248,40.774658893985745,149.6804125032425,40.774658893985745C149.4366125032425,40.774658893985745,149.2538125032425,40.71333889398575,149.07091250324248,40.65202889398575Q149.01001250324248,40.65202889398575,148.9490125032425,40.52939889398575L148.8272125032425,40.46808889398575C148.8881125032425,40.28413889398575,148.8881125032425,40.038878893985746,148.8881125032425,39.85492889398575C148.8881125032425,39.48703889398575,148.8272125032425,39.18045889398575,148.76621250324249,38.81256889398575C148.6443125032425,38.26072889398575,148.4615125032425,37.77019889398575,148.1568125032425,37.340988893985745Q148.2177125032425,37.340988893985745,148.2787125032425,37.21835889398575C148.2787125032425,37.157048893985746,148.2787125032425,37.09572889398575,148.3396125032425,37.034418893985745C148.4615125032425,36.91177889398575,148.6443125032425,36.78914889398575,148.8272125032425,36.666518893985746C148.9490125032425,36.60520889398575,149.01001250324248,36.54388889398575,149.1319125032425,36.482578893985746L149.1928125032425,36.42125889398575C149.37571250324248,36.29862889398575,149.37571250324248,36.05336889398575,149.2538125032425,35.93073889398575C149.1319125032425,35.80810889398575,148.8881125032425,35.74678889398575,148.76621250324249,35.93073889398575L148.70531250324248,35.992048893985746C148.6443125032425,36.05336889398575,148.5834125032425,36.17599889398575,148.4615125032425,36.23731889398575C148.2787125032425,36.42125889398575,148.1568125032425,36.54388889398575,148.03491250324248,36.66652889398575Q147.9739125032425,36.72783889398575,147.8521125032425,36.66652889398575L147.73021250324248,36.78915889398575C146.9988125032425,35.99205889398575,146.02372250324248,35.562848893985745,144.9267125032425,35.44021889398575L144.9267125032425,35.31757889398575C144.86576250324248,35.25626889398575,144.8048225032425,35.25626889398575,144.8048225032425,35.13363889398575C144.8048225032425,34.94968889398575,144.8048225032425,34.76574889398575,144.86577250324248,34.52047889398575C144.86577250324248,34.397848893985746,144.9267225032425,34.33653889398575,144.9267225032425,34.213908893985746Q144.9267225032425,34.15258889398575,144.9267225032425,34.09126889398575C144.9267225032425,33.90732889398575,144.8048325032425,33.723378893985746,144.5610425032425,33.723378893985746C144.3172625032425,33.723378893985746,144.19537250324248,33.90732889398575,144.19537250324248,34.09126889398575L144.19537250324248,34.15258889398575C144.19537250324248,34.27521889398575,144.2563225032425,34.33652889398575,144.2563225032425,34.45916889398575C144.3172725032425,34.70442889398575,144.3172725032425,34.888378893985745,144.3172725032425,35.072318893985745C144.3172725032425,35.13363889398575,144.2563225032425,35.194948893985746,144.19538250324248,35.25626889398575L144.19538250324248,35.37889889398575C143.0983725032425,35.44020889398575,142.1232625032425,35.93073889398575,141.39191250324248,36.72783889398575C141.3309725032425,36.72783889398575,141.3309725032425,36.66652889398575,141.2700325032425,36.60520889398575C141.20908250324248,36.60520889398575,141.1481425032425,36.60520889398575,141.0871925032425,36.60520889398575C140.9653025032425,36.482578893985746,140.7824725032425,36.359948893985745,140.6605825032425,36.17599889398575C140.5996325032425,36.11468889398575,140.5386925032425,35.992048893985746,140.41680250324248,35.93073889398575L140.3558525032425,35.869418893985745C140.2949125032425,35.80810889398575,140.23397250324248,35.80810889398575,140.1120825032425,35.74678889398575C139.9901925032425,35.74678889398575,139.9292425032425,35.80810889398575,139.8683025032425,35.869418893985745C139.74642250324248,35.992048893985746,139.8073525032425,36.23730889398575,139.92925250324248,36.359948893985745L139.9902025032425,36.42125889398575C140.11209250324248,36.482578893985746,140.1730425032425,36.54388889398575,140.2949225032425,36.60520889398575C140.4777625032425,36.72783889398575,140.6606025032425,36.85046889398575,140.78249250324248,36.97309889398575C140.8434325032425,37.03440889398575,140.8434325032425,37.09572889398575,140.8434325032425,37.157048893985746L140.9653225032425,37.279678893985746C140.4777625032425,38.01545889398575,140.2339825032425,38.87387889398575,140.2339825032425,39.73229889398575C140.2339825032425,39.91623889398575,140.2339825032425,40.16149889398575,140.29493250324248,40.40676889398575L140.1730525032425,40.46807889398575C140.11210250324248,40.52938889398575,140.11210250324248,40.59070889398575,140.0511625032425,40.59070889398575C139.8683225032425,40.65201889398575,139.6854925032425,40.65201889398575,139.44171250324248,40.71333889398575C139.3198225032425,40.71333889398575,139.2588725032425,40.71333889398575,139.13699250324248,40.71333889398575L139.0760425032425,40.71333889398575C138.8932025032425,40.77464889398575,138.77131250324248,40.95859889398575,138.77131250324248,41.14254889398575C138.8322625032425,41.32648889398575,139.0150925032425,41.44911889398575,139.1979325032425,41.38780889398575L139.2588725032425,41.38780889398575C139.3807625032425,41.32648889398575,139.44171250324248,41.32648889398575,139.5636025032425,41.26517889398575C139.8073725032425,41.203858893985746,139.9902125032425,41.14254889398575,140.1730525032425,41.08122889398575Q140.2339925032425,41.08122889398575,140.3558825032425,41.14254889398575L140.4777725032425,41.14254889398575C140.8434425032425,42.18488889398575,141.5138325032425,43.043288893985746,142.42800250324248,43.59518889398575L142.3670525032425,43.71778889398575C142.3670525032425,43.779088893985744,142.42800250324248,43.84038889398575,142.42800250324248,43.901788893985746C142.3670525032425,44.08568889398575,142.2451725032425,44.26958889398575,142.12328250324248,44.453588893985746C142.0623325032425,44.576188893985744,142.0013925032425,44.63748889398575,141.94044250324248,44.698888893985746Q141.8794925032425,44.76018889398575,141.8794925032425,44.821488893985745C141.8185425032425,45.005388893985746,141.8794925032425,45.250688893985746,142.0013825032425,45.31198889398575C142.1842225032425,45.373288893985745,142.3670525032425,45.31198889398575,142.4889425032425,45.12808889398575L142.5498925032425,45.06668889398575C142.61084250324248,44.94408889398575,142.61084250324248,44.88278889398575,142.6717825032425,44.76018889398575C142.7327325032425,44.51488889398575,142.7936725032425,44.26958889398575,142.91555250324248,44.14698889398575C142.9765025032425,44.08568889398575,142.9765025032425,44.08568889398575,143.0374425032425,44.08568889398575L143.09839250324248,43.96308889398575C143.58595250324248,44.14698889398575,144.07351250324248,44.26958889398575,144.6829625032425,44.26958889398575C145.23146250324248,44.26958889398575,145.7799725032425,44.14698889398575,146.26753250324248,43.96308889398575L146.2065825032425,43.96308889398575L146.26753250324248,44.08568889398575C146.3285125032425,44.08568889398575,146.38941250324248,44.14698889398575,146.4504125032425,44.20828889398575C146.5113125032425,44.39228889398575,146.5722125032425,44.576188893985744,146.69411250324248,44.76018889398575C146.7551125032425,44.88278889398575,146.7551125032425,44.94408889398575,146.8160125032425,45.06668889398575L146.8770125032425,45.12808889398575C146.9379125032425,45.31198889398575,147.1817125032425,45.373288893985745,147.36451250324248,45.31198889398575C147.5474125032425,45.250688893985746,147.6083125032425,45.005388893985746,147.4864125032425,44.821488893985745Q147.4255125032425,44.76018889398575,147.4255125032425,44.698888893985746C147.36451250324248,44.576188893985744,147.3036125032425,44.51488889398575,147.2426125032425,44.453588893985746C147.1207125032425,44.26958889398575,146.99891250324248,44.08568889398575,146.9379125032425,43.901788893985746C146.9379125032425,43.84038889398575,146.9379125032425,43.779088893985744,146.9379125032425,43.71778889398575L146.8770125032425,43.59518889398575C147.7911125032425,43.043288893985746,148.4615125032425,42.18488889398575,148.8272125032425,41.14254889398575L148.8272125032425,41.08122889398575Q148.8881125032425,41.08122889398575,148.9491125032425,41.08122889398575C149.01001250324248,41.019918893985746,149.07101250324249,41.019918893985746,149.1319125032425,41.019918893985746C149.3147125032425,41.019918893985746,149.4976125032425,41.14254889398575,149.7414125032425,41.203858893985746C149.8632125032425,41.26517889398575,149.9242125032425,41.26517889398575,150.04611250324248,41.32648889398575L150.1070125032425,41.32648889398575C150.2899125032425,41.38780889398575,150.4727125032425,41.26517889398575,150.5336125032425,41.08122889398575C150.41171250324248,40.95860889398575,150.2898125032425,40.774658893985745,150.1070125032425,40.774658893985745ZM147.42541250324248,38.01545889398575L146.0846425032425,39.18045889398575C145.96275250324248,39.30307889398575,145.96275250324248,39.48702889398575,146.0236925032425,39.60965889398575C146.0846425032425,39.67097889398575,146.0846425032425,39.67097889398575,146.14558250324248,39.732288893985746L147.8520125032425,40.222818893985746C147.8520125032425,40.100188893985745,147.8520125032425,39.977558893985744,147.8520125032425,39.85491889398575C147.8520125032425,39.60965889398575,147.7911125032425,39.30307889398575,147.7911125032425,39.05781889398575C147.73011250324248,38.68992889398575,147.6082125032425,38.32203889398575,147.42541250324248,38.01545889398575ZM144.6829025032425,41.63308889398575C144.6219625032425,41.510448893985746,144.5610225032425,41.449128893985744,144.4391325032425,41.449128893985744C144.31724250324248,41.449128893985744,144.2562925032425,41.51043889398575,144.1953525032425,41.63308889398575L143.34213250324248,43.16598889398575C143.7078025032425,43.28858889398575,144.0734625032425,43.34988889398575,144.50008250324248,43.34988889398575C144.8657525032425,43.34988889398575,145.2923625032425,43.28858889398575,145.65802250324248,43.16598889398575L144.6829025032425,41.63308889398575ZM145.96275250324248,40.71333889398575C145.8408625032425,40.71333889398575,145.8408625032425,40.71333889398575,145.77991250324249,40.774658893985745C145.65802250324248,40.83596889398575,145.5970825032425,41.019918893985746,145.65802250324248,41.14254889398575L146.3284125032425,42.79808889398575C146.9988125032425,42.36888889398575,147.4864125032425,41.75568889398575,147.73011250324248,41.019918893985746L145.96275250324248,40.71333889398575Z" fill="#C6D6F7" fill-opacity="1"/></g></g></g></g></svg>